<svg width="32" height="32" viewBox="0 0 32 32" fill="none" xmlns="http://www.w3.org/2000/svg">
<g opacity="0.5">
<path d="M14.1514 3.7769C15.0191 2.43607 16.9809 2.43607 17.8486 3.77691C18.6721 5.04936 20.2749 5.57015 21.689 5.02472C23.1791 4.44999 24.7662 5.60311 24.6801 7.19789C24.5984 8.71134 25.589 10.0748 27.0536 10.4647C28.5969 10.8756 29.2032 12.7414 28.1961 13.981C27.2404 15.1573 27.2404 16.8427 28.1961 18.019C29.2032 19.2586 28.5969 21.1244 27.0536 21.5353C25.589 21.9252 24.5984 23.2887 24.6801 24.8021C24.7662 26.3969 23.1791 27.55 21.689 26.9753C20.2749 26.4298 18.6721 26.9506 17.8486 28.2231C16.9809 29.5639 15.0191 29.5639 14.1514 28.2231C13.3279 26.9506 11.7251 26.4298 10.311 26.9753C8.82089 27.55 7.23375 26.3969 7.31989 24.8021C7.40164 23.2887 6.41104 21.9252 4.9464 21.5353C3.40305 21.1244 2.79682 19.2586 3.80389 18.019C4.75961 16.8427 4.75961 15.1573 3.80389 13.981C2.79682 12.7414 3.40305 10.8756 4.9464 10.4647C6.41104 10.0748 7.40164 8.71134 7.31989 7.19789C7.23375 5.60311 8.82089 4.44999 10.311 5.02472C11.7251 5.57015 13.3279 5.04936 14.1514 3.7769Z" fill="#26235B" stroke="#BCBBCC"/>
<g clip-path="url(#clip0_20_3143)">
<path d="M17.8762 15.8761L18.1835 14.3275L21.731 18.5553L21.9225 18.3946L21.731 18.5553C21.7958 18.6326 21.7858 18.7478 21.7085 18.8127L21.0456 19.3689C20.9683 19.4338 20.853 19.4237 20.7882 19.3464L17.8762 15.8761Z" fill="#F6F6F6" stroke="#9A5615" stroke-width="0.5"/>
<path d="M23.134 13.3482V14.2136C23.134 14.3145 23.0522 14.3963 22.9513 14.3963H20.0242L18.9914 13.1655H22.9513C23.0522 13.1655 23.134 13.2473 23.134 13.3482Z" fill="#F6F6F6" stroke="#9A5615" stroke-width="0.5"/>
<path d="M8.86548 14.2136V13.3482C8.86548 13.2473 8.94728 13.1655 9.04817 13.1655H13.008L11.9753 14.3963H9.04817C8.94728 14.3963 8.86548 14.3145 8.86548 14.2136Z" fill="#F6F6F6" stroke="#9A5615" stroke-width="0.5"/>
<path d="M10.2904 18.8127L10.2904 18.8127C10.2131 18.7478 10.203 18.6326 10.2679 18.5553L10.0763 18.3946L10.2679 18.5553L13.8154 14.3275L14.1227 15.8761L11.2107 19.3464C11.1458 19.4237 11.0306 19.4338 10.9533 19.3689L10.2904 18.8127Z" fill="#F6F6F6" stroke="#9A5615" stroke-width="0.5"/>
<path d="M14.9043 12.8069L14.9043 12.8069C14.8819 12.6939 14.9683 12.5886 15.0835 12.5886H16.9141C17.0293 12.5886 17.1157 12.6939 17.0933 12.8069C17.0933 12.8069 17.0933 12.8069 17.0933 12.8069L16.6062 15.2617H15.3914L14.9043 12.8069Z" fill="#F6F6F6" stroke="#9A5615" stroke-width="0.5"/>
</g>
<path d="M11.1745 21.7535L11.0693 22.2914L10.9493 22.8302L10.3183 25.0834H9.47693L8.32825 20.9167H8.86382L9.45917 23.2745C9.45921 23.2747 9.45925 23.2748 9.45929 23.275C9.51805 23.5117 9.5658 23.7273 9.60274 23.9221C9.64029 24.1201 9.67237 24.3052 9.69902 24.4774L10.1949 24.4637C10.1995 24.4165 10.2092 24.3438 10.2248 24.243C10.246 24.1399 10.2672 24.0321 10.2884 23.9199C10.3151 23.8063 10.3393 23.6972 10.3609 23.5926C10.3872 23.4861 10.4079 23.4051 10.4231 23.3486L11.1122 20.9167H11.7433L12.425 23.3493L12.4248 23.3494L12.428 23.3592C12.4402 23.397 12.4571 23.4622 12.4784 23.5603L12.4784 23.5603L12.479 23.5629C12.4998 23.6545 12.5209 23.7565 12.5422 23.8692L12.5418 23.8693L12.5451 23.8827C12.5702 23.9846 12.5903 24.089 12.6054 24.1961L12.6051 24.1961L12.6077 24.2094C12.6289 24.3172 12.6444 24.4054 12.6544 24.4749L13.1498 24.4708C13.1607 24.3855 13.1715 24.2932 13.1823 24.1939C13.1971 24.0999 13.2193 23.9949 13.2496 23.8784L13.2497 23.8784L13.2502 23.8763L13.9926 20.9167H14.5197L13.371 25.0834H12.5298L11.8968 22.8164L11.8943 22.8074L11.8912 22.7987C11.8852 22.7822 11.8696 22.7284 11.8426 22.6241C11.8209 22.5189 11.7965 22.4067 11.7696 22.2875C11.7428 22.1685 11.7187 22.0573 11.6973 21.9538C11.6868 21.9031 11.6795 21.8639 11.6749 21.8351C11.6726 21.8208 11.6712 21.8104 11.6704 21.8035C11.6699 21.7992 11.6698 21.7973 11.6698 21.7973C11.6698 21.7973 11.6699 21.7988 11.6699 21.8015L11.1745 21.7535ZM17.3788 25.0834H15.7316V20.9167H17.0531C17.7651 20.9167 18.2289 21.0128 18.4887 21.1672L18.4887 21.1672L18.4928 21.1696C18.7317 21.3055 18.855 21.5151 18.855 21.8466C18.855 22.0907 18.7953 22.261 18.6986 22.3812L18.6985 22.3811L18.6956 22.3849C18.6043 22.5029 18.4757 22.5791 18.2878 22.6061L18.0733 22.6369V22.8535V22.8911V23.0961L18.2743 23.1363C18.5673 23.1948 18.7359 23.2974 18.8267 23.4134C18.924 23.5377 18.9853 23.7185 18.9853 23.9808C18.9853 24.3285 18.8539 24.5846 18.5855 24.7765C18.3107 24.9719 17.9171 25.0834 17.3788 25.0834ZM16.3064 22.5154V22.7654H16.5564H17.1752C17.4791 22.7654 17.7497 22.726 17.9414 22.6081L17.9414 22.6081L17.9472 22.6044C18.1644 22.4624 18.2558 22.235 18.2558 21.9818C18.2558 21.8592 18.2317 21.7385 18.1717 21.6299C18.1113 21.5206 18.0223 21.4375 17.9146 21.3795C17.7152 21.2675 17.4367 21.2283 17.1182 21.2283H16.5564H16.3064V21.4783V22.5154ZM16.5564 23.0469H16.3064V23.2969V24.5143V24.7643H16.5564H17.2567C17.5674 24.7643 17.8458 24.7088 18.0516 24.5583C18.272 24.3971 18.3698 24.1569 18.3698 23.8831C18.3698 23.6119 18.2587 23.3821 18.0299 23.2337C17.8197 23.0974 17.5363 23.0469 17.216 23.0469H16.5564ZM22.1435 25.0834H20.4963V20.9167H21.8178C22.5298 20.9167 22.9936 21.0128 23.2534 21.1672L23.2534 21.1672L23.2575 21.1696C23.4964 21.3055 23.6197 21.5151 23.6197 21.8466C23.6197 22.0907 23.5599 22.261 23.4633 22.3812L23.4632 22.3811L23.4603 22.3849C23.369 22.5029 23.2404 22.5791 23.0525 22.6061L22.838 22.6369V22.8535V22.8911V23.0961L23.039 23.1363C23.332 23.1948 23.5006 23.2974 23.5914 23.4134L23.7883 23.2593L23.5914 23.4134C23.6887 23.5377 23.75 23.7185 23.75 23.9808C23.75 24.3286 23.6185 24.5848 23.35 24.7767C23.0752 24.972 22.6816 25.0834 22.1435 25.0834ZM21.0711 22.5154V22.7654H21.3211H21.9399C22.2438 22.7654 22.5143 22.726 22.7061 22.6081L22.7061 22.6081L22.7118 22.6044C22.9291 22.4624 23.0205 22.235 23.0205 21.9818C23.0205 21.8592 22.9964 21.7385 22.9364 21.6299C22.876 21.5206 22.787 21.4375 22.6793 21.3795C22.4799 21.2675 22.2013 21.2283 21.8829 21.2283H21.3211H21.0711V21.4783V22.5154ZM21.3211 23.0469H21.0711V23.2969V24.5143V24.7643H21.3211H22.0213C22.3321 24.7643 22.6105 24.7088 22.8163 24.5583C23.0366 24.3971 23.1345 24.1569 23.1345 23.8831C23.1345 23.6119 23.0234 23.3821 22.7945 23.2337C22.5844 23.0974 22.3009 23.0469 21.9806 23.0469H21.3211Z" fill="#F6F6F6" stroke="#9E5515" stroke-width="0.5"/>
</g>
<defs>
<clipPath id="clip0_20_3143">
<rect width="14.7692" height="14.7692" fill="white" transform="translate(8.61548 8.61548)"/>
</clipPath>
</defs>
</svg>
