<svg width="32" height="32" viewBox="0 0 32 32" fill="none" xmlns="http://www.w3.org/2000/svg">
<g opacity="0.5">
<path d="M14.1514 3.7769C15.0191 2.43607 16.9809 2.43607 17.8486 3.77691C18.6721 5.04936 20.2749 5.57015 21.689 5.02472C23.1791 4.44999 24.7662 5.60311 24.6801 7.19789C24.5984 8.71134 25.589 10.0748 27.0536 10.4647C28.5969 10.8756 29.2032 12.7414 28.1961 13.981C27.2404 15.1573 27.2404 16.8427 28.1961 18.019C29.2032 19.2586 28.5969 21.1244 27.0536 21.5353C25.589 21.9252 24.5984 23.2887 24.6801 24.8021C24.7662 26.3969 23.1791 27.55 21.689 26.9753C20.2749 26.4298 18.6721 26.9506 17.8486 28.2231C16.9809 29.5639 15.0191 29.5639 14.1514 28.2231C13.3279 26.9506 11.7251 26.4298 10.311 26.9753C8.82089 27.55 7.23375 26.3969 7.31989 24.8021C7.40164 23.2887 6.41104 21.9252 4.9464 21.5353C3.40305 21.1244 2.79682 19.2586 3.80389 18.019C4.75961 16.8427 4.75961 15.1573 3.80389 13.981C2.79682 12.7414 3.40305 10.8756 4.9464 10.4647C6.41104 10.0748 7.40164 8.71134 7.31989 7.19789C7.23375 5.60311 8.82089 4.44999 10.311 5.02472C11.7251 5.57015 13.3279 5.04936 14.1514 3.7769Z" fill="#26235B" stroke="#BCBBCC"/>
<g clip-path="url(#clip0_20_3101)">
<path d="M21.9225 18.3946L18.0398 13.7673L17.6077 15.945L20.5967 19.5071C20.7503 19.6902 21.0232 19.7141 21.2063 19.5605L21.8692 19.0042C22.0522 18.8506 22.0761 18.5777 21.9225 18.3946Z" fill="#0084AE"/>
<path d="M23.384 14.2136V13.3482C23.384 13.1093 23.1902 12.9155 22.9513 12.9155H18.4553L19.9076 14.6463H22.9513C23.1902 14.6463 23.384 14.4526 23.384 14.2136Z" fill="#0084AE"/>
<path d="M8.61548 13.3482V14.2136C8.61548 14.4526 8.80921 14.6463 9.04817 14.6463H12.0918L13.5441 12.9155H9.04817C8.80921 12.9155 8.61548 13.1093 8.61548 13.3482Z" fill="#0084AE"/>
<path d="M10.1297 19.0042L10.7926 19.5605C10.9757 19.7141 11.2486 19.6902 11.4022 19.5071L14.3912 15.945L13.9591 13.7673L10.0763 18.3946C9.92274 18.5777 9.94659 18.8506 10.1297 19.0042Z" fill="#0084AE"/>
<path d="M16.9141 12.3386H15.0835C14.8107 12.3386 14.606 12.588 14.6591 12.8555L15.1861 15.5117H16.8115L17.3385 12.8555C17.3916 12.588 17.1869 12.3386 16.9141 12.3386Z" fill="#0084AE"/>
</g>
<path d="M11.3333 20H13.1713C14.0158 20 14.6253 20.1206 14.9999 20.3619C15.3809 20.5968 15.5713 20.9746 15.5713 21.4952C15.5713 21.8571 15.4888 22.1492 15.3237 22.3714C15.165 22.5937 14.9428 22.727 14.6571 22.7714V22.819C15.038 22.9016 15.311 23.0571 15.4761 23.2857C15.6412 23.5143 15.7237 23.819 15.7237 24.2C15.7237 24.7397 15.5269 25.1619 15.1333 25.4667C14.746 25.7651 14.219 25.9143 13.5523 25.9143H11.3333V20ZM12.5904 22.3429H13.3142C13.6571 22.3429 13.9047 22.2921 14.0571 22.1905C14.2094 22.0825 14.2856 21.9079 14.2856 21.6667C14.2856 21.4381 14.2031 21.2762 14.038 21.181C13.8729 21.0794 13.6094 21.0286 13.2475 21.0286H12.5904V22.3429ZM12.5904 23.3333V24.8762H13.4094C14.0825 24.8762 14.419 24.6095 14.419 24.0762C14.419 23.581 14.0666 23.3333 13.3618 23.3333H12.5904Z" fill="#0084AE"/>
<path d="M16.9062 20H18.7443C19.5887 20 20.1982 20.1206 20.5728 20.3619C20.9538 20.5968 21.1443 20.9746 21.1443 21.4952C21.1443 21.8571 21.0617 22.1492 20.8966 22.3714C20.7379 22.5937 20.5157 22.727 20.23 22.7714V22.819C20.6109 22.9016 20.8839 23.0571 21.049 23.2857C21.2141 23.5143 21.2966 23.819 21.2966 24.2C21.2966 24.7397 21.0998 25.1619 20.7062 25.4667C20.3189 25.7651 19.7919 25.9143 19.1252 25.9143H16.9062V20ZM18.1633 22.3429H18.8871C19.23 22.3429 19.4776 22.2921 19.63 22.1905C19.7824 22.0825 19.8586 21.9079 19.8586 21.6667C19.8586 21.4381 19.776 21.2762 19.6109 21.181C19.4459 21.0794 19.1824 21.0286 18.8205 21.0286H18.1633V22.3429ZM18.1633 23.3333V24.8762H18.9824C19.6554 24.8762 19.9919 24.6095 19.9919 24.0762C19.9919 23.581 19.6395 23.3333 18.9347 23.3333H18.1633Z" fill="#0084AE"/>
</g>
<defs>
<clipPath id="clip0_20_3101">
<rect width="14.7692" height="14.7692" fill="white" transform="translate(8.61548 8.61548)"/>
</clipPath>
</defs>
</svg>
