<svg width="32" height="32" viewBox="0 0 32 32" fill="none" xmlns="http://www.w3.org/2000/svg">
<g opacity="0.5">
<path d="M14.1514 3.7769C15.0191 2.43607 16.9809 2.43607 17.8486 3.77691C18.6721 5.04936 20.2749 5.57015 21.689 5.02472C23.1791 4.44999 24.7662 5.60311 24.6801 7.19789C24.5984 8.71134 25.589 10.0748 27.0536 10.4647C28.5969 10.8756 29.2032 12.7414 28.1961 13.981C27.2404 15.1573 27.2404 16.8427 28.1961 18.019C29.2032 19.2586 28.5969 21.1244 27.0536 21.5353C25.589 21.9252 24.5984 23.2887 24.6801 24.8021C24.7662 26.3969 23.1791 27.55 21.689 26.9753C20.2749 26.4298 18.6721 26.9506 17.8486 28.2231C16.9809 29.5639 15.0191 29.5639 14.1514 28.2231C13.3279 26.9506 11.7251 26.4298 10.311 26.9753C8.82089 27.55 7.23375 26.3969 7.31989 24.8021C7.40164 23.2887 6.41104 21.9252 4.9464 21.5353C3.40305 21.1244 2.79682 19.2586 3.80389 18.019C4.75961 16.8427 4.75961 15.1573 3.80389 13.981C2.79682 12.7414 3.40305 10.8756 4.9464 10.4647C6.41104 10.0748 7.40164 8.71134 7.31989 7.19789C7.23375 5.60311 8.82089 4.44999 10.311 5.02472C11.7251 5.57015 13.3279 5.04936 14.1514 3.7769Z" fill="#26235B" stroke="#BCBBCC"/>
<g clip-path="url(#clip0_20_3087)">
<path d="M21.9225 18.3946L18.0398 13.7673L17.6077 15.945L20.5967 19.5071C20.7503 19.6902 21.0232 19.7141 21.2063 19.5605L21.8692 19.0042C22.0522 18.8506 22.0761 18.5777 21.9225 18.3946Z" fill="#00AE51"/>
<path d="M23.384 14.2136V13.3482C23.384 13.1093 23.1902 12.9155 22.9513 12.9155H18.4553L19.9076 14.6463H22.9513C23.1902 14.6463 23.384 14.4526 23.384 14.2136Z" fill="#00AE51"/>
<path d="M8.61548 13.3482V14.2136C8.61548 14.4526 8.80921 14.6463 9.04817 14.6463H12.0918L13.5441 12.9155H9.04817C8.80921 12.9155 8.61548 13.1093 8.61548 13.3482Z" fill="#00AE51"/>
<path d="M10.1297 19.0042L10.7926 19.5605C10.9757 19.7141 11.2486 19.6902 11.4022 19.5071L14.3912 15.945L13.9591 13.7673L10.0763 18.3946C9.92274 18.5777 9.94659 18.8506 10.1297 19.0042Z" fill="#00AE51"/>
<path d="M16.9141 12.3386H15.0835C14.8107 12.3386 14.606 12.588 14.6591 12.8555L15.1861 15.5117H16.8115L17.3385 12.8555C17.3916 12.588 17.1869 12.3386 16.9141 12.3386Z" fill="#00AE51"/>
</g>
<path d="M13.1715 22.6762H15.5144V25.7429C15.1334 25.8698 14.7779 25.9556 14.4477 26C14.1175 26.0508 13.7715 26.0762 13.4096 26.0762C12.508 26.0762 11.8255 25.819 11.362 25.3048C10.8985 24.7841 10.6667 24.0286 10.6667 23.0381C10.6667 22.5556 10.7366 22.127 10.8763 21.7524C11.016 21.3778 11.2191 21.0603 11.4858 20.8C11.7525 20.5397 12.0763 20.3429 12.4572 20.2095C12.8382 20.0698 13.2699 20 13.7525 20C14.3429 20 14.9271 20.1206 15.5048 20.3619L15.0953 21.3714C14.6699 21.1556 14.2191 21.0476 13.7429 21.0476C13.4763 21.0476 13.2318 21.0952 13.0096 21.1905C12.7874 21.2857 12.5969 21.4222 12.4382 21.6C12.2858 21.7714 12.1652 21.981 12.0763 22.2286C11.9937 22.4762 11.9525 22.7524 11.9525 23.0571C11.9525 23.7111 12.0826 24.2063 12.3429 24.5429C12.6096 24.873 12.9937 25.0381 13.4953 25.0381C13.7493 25.0381 14.016 25.0095 14.2953 24.9524V23.7238H13.1715V22.6762Z" fill="#00AE51"/>
<path d="M16.923 20.0857H18.7611C19.6055 20.0857 20.2151 20.2063 20.5897 20.4476C20.9706 20.6825 21.1611 21.0603 21.1611 21.581C21.1611 21.9429 21.0786 22.2349 20.9135 22.4571C20.7547 22.6794 20.5325 22.8127 20.2468 22.8571V22.9048C20.6278 22.9873 20.9008 23.1429 21.0659 23.3714C21.2309 23.6 21.3135 23.9048 21.3135 24.2857C21.3135 24.8254 21.1166 25.2476 20.723 25.5524C20.3357 25.8508 19.8087 26 19.142 26H16.923V20.0857ZM18.1801 22.4286H18.9039C19.2468 22.4286 19.4944 22.3778 19.6468 22.2762C19.7992 22.1683 19.8754 21.9937 19.8754 21.7524C19.8754 21.5238 19.7928 21.3619 19.6278 21.2667C19.4627 21.1651 19.1992 21.1143 18.8373 21.1143H18.1801V22.4286ZM18.1801 23.419V24.9619H18.9992C19.6722 24.9619 20.0087 24.6952 20.0087 24.1619C20.0087 23.6667 19.6563 23.419 18.9516 23.419H18.1801Z" fill="#00AE51"/>
</g>
<defs>
<clipPath id="clip0_20_3087">
<rect width="14.7692" height="14.7692" fill="white" transform="translate(8.61548 8.61548)"/>
</clipPath>
</defs>
</svg>
