<svg width="32" height="32" viewBox="0 0 32 32" fill="none" xmlns="http://www.w3.org/2000/svg">
<g opacity="0.5">
<path d="M14.1514 3.7769C15.0191 2.43607 16.9809 2.43607 17.8486 3.77691C18.6721 5.04936 20.2749 5.57015 21.689 5.02472C23.1791 4.44999 24.7662 5.60311 24.6801 7.19789C24.5984 8.71134 25.589 10.0748 27.0536 10.4647C28.5969 10.8756 29.2032 12.7414 28.1961 13.981C27.2404 15.1573 27.2404 16.8427 28.1961 18.019C29.2032 19.2586 28.5969 21.1244 27.0536 21.5353C25.589 21.9252 24.5984 23.2887 24.6801 24.8021C24.7662 26.3969 23.1791 27.55 21.689 26.9753C20.2749 26.4298 18.6721 26.9506 17.8486 28.2231C16.9809 29.5639 15.0191 29.5639 14.1514 28.2231C13.3279 26.9506 11.7251 26.4298 10.311 26.9753C8.82089 27.55 7.23375 26.3969 7.31989 24.8021C7.40164 23.2887 6.41104 21.9252 4.9464 21.5353C3.40305 21.1244 2.79682 19.2586 3.80389 18.019C4.75961 16.8427 4.75961 15.1573 3.80389 13.981C2.79682 12.7414 3.40305 10.8756 4.9464 10.4647C6.41104 10.0748 7.40164 8.71134 7.31989 7.19789C7.23375 5.60311 8.82089 4.44999 10.311 5.02472C11.7251 5.57015 13.3279 5.04936 14.1514 3.7769Z" fill="#26235B" stroke="#BCBBCC"/>
<g clip-path="url(#clip0_20_3073)">
<path d="M21.9225 18.3946L18.0398 13.7673L17.6077 15.945L20.5967 19.5071C20.7503 19.6902 21.0232 19.7141 21.2063 19.5605L21.8692 19.0042C22.0522 18.8506 22.0761 18.5777 21.9225 18.3946Z" fill="#FE7B0D"/>
<path d="M23.384 14.2136V13.3482C23.384 13.1093 23.1902 12.9155 22.9513 12.9155H18.4553L19.9076 14.6463H22.9513C23.1902 14.6463 23.384 14.4526 23.384 14.2136Z" fill="#FE7B0D"/>
<path d="M8.61548 13.3482V14.2136C8.61548 14.4526 8.80921 14.6463 9.04817 14.6463H12.0918L13.5441 12.9155H9.04817C8.80921 12.9155 8.61548 13.1093 8.61548 13.3482Z" fill="#FE7B0D"/>
<path d="M10.1297 19.0042L10.7926 19.5605C10.9757 19.7141 11.2486 19.6902 11.4022 19.5071L14.3912 15.945L13.9591 13.7673L10.0763 18.3946C9.92274 18.5777 9.94659 18.8506 10.1297 19.0042Z" fill="#FE7B0D"/>
<path d="M16.9141 12.3386H15.0835C14.8107 12.3386 14.606 12.588 14.6591 12.8555L15.1861 15.5117H16.8115L17.3385 12.8555C17.3916 12.588 17.1869 12.3386 16.9141 12.3386Z" fill="#FE7B0D"/>
</g>
<path d="M15.6286 23.0476C15.6286 24.0381 15.3873 24.7937 14.9048 25.3143C14.4286 25.8286 13.7302 26.0857 12.8095 26.0857C11.8889 26.0857 11.1905 25.8286 10.7143 25.3143C10.2381 24.7937 10 24.0349 10 23.0381C10 22.0413 10.2381 21.2857 10.7143 20.7714C11.1968 20.2571 11.8984 20 12.819 20C13.7397 20 14.4381 20.2603 14.9143 20.781C15.3905 21.2952 15.6286 22.0508 15.6286 23.0476ZM11.3143 23.0476C11.3143 24.3746 11.8127 25.0381 12.8095 25.0381C13.8127 25.0381 14.3143 24.3746 14.3143 23.0476C14.3143 21.7143 13.8159 21.0476 12.819 21.0476C11.8159 21.0476 11.3143 21.7143 11.3143 23.0476Z" fill="#FE7B0D"/>
<path d="M16.8487 20.0952H18.6868C19.5312 20.0952 20.1408 20.2159 20.5154 20.4571C20.8963 20.6921 21.0868 21.0698 21.0868 21.5905C21.0868 21.9524 21.0043 22.2444 20.8392 22.4667C20.6804 22.6889 20.4582 22.8222 20.1725 22.8667V22.9143C20.5535 22.9968 20.8265 23.1524 20.9916 23.381C21.1566 23.6095 21.2392 23.9143 21.2392 24.2952C21.2392 24.8349 21.0423 25.2571 20.6487 25.5619C20.2614 25.8603 19.7344 26.0095 19.0677 26.0095H16.8487V20.0952ZM18.1058 22.4381H18.8297C19.1725 22.4381 19.4201 22.3873 19.5725 22.2857C19.7249 22.1778 19.8011 22.0032 19.8011 21.7619C19.8011 21.5333 19.7185 21.3714 19.5535 21.2762C19.3884 21.1746 19.1249 21.1238 18.763 21.1238H18.1058V22.4381ZM18.1058 23.4286V24.9714H18.9249C19.5979 24.9714 19.9344 24.7048 19.9344 24.1714C19.9344 23.6762 19.582 23.4286 18.8773 23.4286H18.1058Z" fill="#FE7B0D"/>
</g>
<defs>
<clipPath id="clip0_20_3073">
<rect width="14.7692" height="14.7692" fill="white" transform="translate(8.61548 8.61548)"/>
</clipPath>
</defs>
</svg>
