<svg width="32" height="32" viewBox="0 0 32 32" fill="none" xmlns="http://www.w3.org/2000/svg">
<g opacity="0.5">
<path d="M14.1514 3.7769C15.0191 2.43607 16.9809 2.43607 17.8486 3.77691C18.6721 5.04936 20.2749 5.57015 21.689 5.02472C23.1791 4.44999 24.7662 5.60311 24.6801 7.19789C24.5984 8.71134 25.589 10.0748 27.0536 10.4647C28.5969 10.8756 29.2032 12.7414 28.1961 13.981C27.2404 15.1573 27.2404 16.8427 28.1961 18.019C29.2032 19.2586 28.5969 21.1244 27.0536 21.5353C25.589 21.9252 24.5984 23.2887 24.6801 24.8021C24.7662 26.3969 23.1791 27.55 21.689 26.9753C20.2749 26.4298 18.6721 26.9506 17.8486 28.2231C16.9809 29.5639 15.0191 29.5639 14.1514 28.2231C13.3279 26.9506 11.7251 26.4298 10.311 26.9753C8.82089 27.55 7.23375 26.3969 7.31989 24.8021C7.40164 23.2887 6.41104 21.9252 4.9464 21.5353C3.40305 21.1244 2.79682 19.2586 3.80389 18.019C4.75961 16.8427 4.75961 15.1573 3.80389 13.981C2.79682 12.7414 3.40305 10.8756 4.9464 10.4647C6.41104 10.0748 7.40164 8.71134 7.31989 7.19789C7.23375 5.60311 8.82089 4.44999 10.311 5.02472C11.7251 5.57015 13.3279 5.04936 14.1514 3.7769Z" fill="#26235B" stroke="#BCBBCC"/>
<g clip-path="url(#clip0_20_3115)">
<path d="M21.9225 18.3946L18.0398 13.7673L17.6077 15.945L20.5967 19.5071C20.7503 19.6902 21.0232 19.7141 21.2063 19.5605L21.8692 19.0042C22.0522 18.8506 22.0761 18.5777 21.9225 18.3946Z" fill="#B67CE3"/>
<path d="M23.384 14.2136V13.3482C23.384 13.1093 23.1902 12.9155 22.9513 12.9155H18.4553L19.9076 14.6463H22.9513C23.1902 14.6463 23.384 14.4526 23.384 14.2136Z" fill="#B67CE3"/>
<path d="M8.61548 13.3482V14.2136C8.61548 14.4526 8.80921 14.6463 9.04817 14.6463H12.0918L13.5441 12.9155H9.04817C8.80921 12.9155 8.61548 13.1093 8.61548 13.3482Z" fill="#B67CE3"/>
<path d="M10.1297 19.0042L10.7926 19.5605C10.9757 19.7141 11.2486 19.6902 11.4022 19.5071L14.3912 15.945L13.9591 13.7673L10.0763 18.3946C9.92274 18.5777 9.94659 18.8506 10.1297 19.0042Z" fill="#B67CE3"/>
<path d="M16.9141 12.3386H15.0835C14.8107 12.3386 14.606 12.588 14.6591 12.8555L15.1861 15.5117H16.8115L17.3385 12.8555C17.3916 12.588 17.1869 12.3386 16.9141 12.3386Z" fill="#B67CE3"/>
</g>
<path d="M12.3106 22.8213H12.7375C13.5384 22.8213 13.9389 22.5185 13.9389 21.913C13.9389 21.6167 13.8561 21.3977 13.6907 21.256C13.5252 21.1143 13.2637 21.0435 12.9063 21.0435H12.3106V22.8213ZM15.2594 21.8744C15.2594 22.5185 15.0542 23.0113 14.6438 23.3527C14.24 23.694 13.6476 23.8647 12.8666 23.8647H12.3106V26H11V20H12.9758C14.4982 20 15.2594 20.6248 15.2594 21.8744Z" fill="#B67CE3"/>
<path d="M16.4229 20H18.3391C19.2195 20 19.8549 20.1224 20.2454 20.3671C20.6426 20.6055 20.8411 20.9887 20.8411 21.5169C20.8411 21.8841 20.7551 22.1804 20.583 22.4058C20.4175 22.6312 20.1859 22.7665 19.888 22.8116V22.8599C20.2851 22.9436 20.5698 23.1014 20.7419 23.3333C20.914 23.5652 21 23.8744 21 24.2609C21 24.8084 20.7948 25.2367 20.3844 25.5459C19.9807 25.8486 19.4313 26 18.7363 26H16.4229V20ZM17.7335 22.3768H18.4881C18.8455 22.3768 19.1036 22.3253 19.2625 22.2222C19.4214 22.1127 19.5008 21.9356 19.5008 21.6908C19.5008 21.4589 19.4147 21.2947 19.2426 21.1981C19.0705 21.095 18.7959 21.0435 18.4186 21.0435H17.7335V22.3768ZM17.7335 23.3816V24.9469H18.5874C19.289 24.9469 19.6398 24.6763 19.6398 24.1353C19.6398 23.6328 19.2724 23.3816 18.5377 23.3816H17.7335Z" fill="#B67CE3"/>
</g>
<defs>
<clipPath id="clip0_20_3115">
<rect width="14.7692" height="14.7692" fill="white" transform="translate(8.61548 8.61548)"/>
</clipPath>
</defs>
</svg>
