<svg width="32" height="32" viewBox="0 0 32 32" fill="none" xmlns="http://www.w3.org/2000/svg">
<g opacity="0.5">
<path d="M14.1514 3.7769C15.0191 2.43607 16.9809 2.43607 17.8486 3.77691C18.6721 5.04936 20.2749 5.57015 21.689 5.02472C23.1791 4.44999 24.7662 5.60311 24.6801 7.19789C24.5984 8.71134 25.589 10.0748 27.0536 10.4647C28.5969 10.8756 29.2032 12.7414 28.1961 13.981C27.2404 15.1573 27.2404 16.8427 28.1961 18.019C29.2032 19.2586 28.5969 21.1244 27.0536 21.5353C25.589 21.9252 24.5984 23.2887 24.6801 24.8021C24.7662 26.3969 23.1791 27.55 21.689 26.9753C20.2749 26.4298 18.6721 26.9506 17.8486 28.2231C16.9809 29.5639 15.0191 29.5639 14.1514 28.2231C13.3279 26.9506 11.7251 26.4298 10.311 26.9753C8.82089 27.55 7.23375 26.3969 7.31989 24.8021C7.40164 23.2887 6.41104 21.9252 4.9464 21.5353C3.40305 21.1244 2.79682 19.2586 3.80389 18.019C4.75961 16.8427 4.75961 15.1573 3.80389 13.981C2.79682 12.7414 3.40305 10.8756 4.9464 10.4647C6.41104 10.0748 7.40164 8.71134 7.31989 7.19789C7.23375 5.60311 8.82089 4.44999 10.311 5.02472C11.7251 5.57015 13.3279 5.04936 14.1514 3.7769Z" fill="#26235B" stroke="#BCBBCC"/>
<g clip-path="url(#clip0_20_3129)">
<path d="M21.9225 18.3946L18.0398 13.7673L17.6077 15.945L20.5967 19.5071C20.7503 19.6902 21.0232 19.7141 21.2063 19.5605L21.8692 19.0042C22.0522 18.8506 22.0761 18.5777 21.9225 18.3946Z" fill="#FD0003"/>
<path d="M23.384 14.2136V13.3482C23.384 13.1093 23.1902 12.9155 22.9513 12.9155H18.4553L19.9076 14.6463H22.9513C23.1902 14.6463 23.384 14.4526 23.384 14.2136Z" fill="#FD0003"/>
<path d="M8.61548 13.3482V14.2136C8.61548 14.4526 8.80921 14.6463 9.04817 14.6463H12.0918L13.5441 12.9155H9.04817C8.80921 12.9155 8.61548 13.1093 8.61548 13.3482Z" fill="#FD0003"/>
<path d="M10.1297 19.0042L10.7926 19.5605C10.9757 19.7141 11.2486 19.6902 11.4022 19.5071L14.3912 15.945L13.9591 13.7673L10.0763 18.3946C9.92274 18.5777 9.94659 18.8506 10.1297 19.0042Z" fill="#FD0003"/>
<path d="M16.9141 12.3386H15.0835C14.8107 12.3386 14.606 12.588 14.6591 12.8555L15.1861 15.5117H16.8115L17.3385 12.8555C17.3916 12.588 17.1869 12.3386 16.9141 12.3386Z" fill="#FD0003"/>
</g>
<path d="M12.5904 22.6286H12.9904C13.3904 22.6286 13.6825 22.5619 13.8666 22.4286C14.0571 22.2952 14.1523 22.0857 14.1523 21.8C14.1523 21.5143 14.0571 21.3143 13.8666 21.2C13.6761 21.0857 13.3777 21.0286 12.9713 21.0286H12.5904V22.6286ZM12.5904 23.6476V25.9143H11.3333V20H13.0571C13.8761 20 14.4729 20.146 14.8475 20.4381C15.2285 20.7302 15.419 21.1746 15.419 21.7714C15.419 22.1206 15.3237 22.4317 15.1333 22.7048C14.9428 22.9714 14.6729 23.181 14.3237 23.3333C14.7682 24.0063 15.1333 24.5556 15.419 24.981C15.711 25.4063 15.9237 25.7175 16.0571 25.9143H14.6666L13.2571 23.6476H12.5904Z" fill="#FD0003"/>
<path d="M16.802 20H18.6401C19.4845 20 20.0941 20.1206 20.4687 20.3619C20.8496 20.5968 21.0401 20.9746 21.0401 21.4952C21.0401 21.8571 20.9576 22.1492 20.7925 22.3714C20.6337 22.5937 20.4115 22.727 20.1258 22.7714V22.819C20.5068 22.9016 20.7798 23.0571 20.9449 23.2857C21.1099 23.5143 21.1925 23.819 21.1925 24.2C21.1925 24.7397 20.9957 25.1619 20.602 25.4667C20.2147 25.7651 19.6877 25.9143 19.021 25.9143H16.802V20ZM18.0591 22.3429H18.783C19.1258 22.3429 19.3734 22.2921 19.5258 22.1905C19.6782 22.0825 19.7544 21.9079 19.7544 21.6667C19.7544 21.4381 19.6718 21.2762 19.5068 21.181C19.3417 21.0794 19.0782 21.0286 18.7163 21.0286H18.0591V22.3429ZM18.0591 23.3333V24.8762H18.8782C19.5512 24.8762 19.8877 24.6095 19.8877 24.0762C19.8877 23.581 19.5353 23.3333 18.8306 23.3333H18.0591Z" fill="#FD0003"/>
</g>
<defs>
<clipPath id="clip0_20_3129">
<rect width="14.7692" height="14.7692" fill="white" transform="translate(8.61548 8.61548)"/>
</clipPath>
</defs>
</svg>
