<svg width="32" height="32" viewBox="0 0 32 32" fill="none" xmlns="http://www.w3.org/2000/svg">
<g opacity="0.5">
<path d="M14.1514 3.7769C15.0191 2.43607 16.9809 2.43607 17.8486 3.77691C18.6721 5.04936 20.2749 5.57015 21.689 5.02472C23.1791 4.44999 24.7662 5.60311 24.6801 7.19789C24.5984 8.71134 25.589 10.0748 27.0536 10.4647C28.5969 10.8756 29.2032 12.7414 28.1961 13.981C27.2404 15.1573 27.2404 16.8427 28.1961 18.019C29.2032 19.2586 28.5969 21.1244 27.0536 21.5353C25.589 21.9252 24.5984 23.2887 24.6801 24.8021C24.7662 26.3969 23.1791 27.55 21.689 26.9753C20.2749 26.4298 18.6721 26.9506 17.8486 28.2231C16.9809 29.5639 15.0191 29.5639 14.1514 28.2231C13.3279 26.9506 11.7251 26.4298 10.311 26.9753C8.82089 27.55 7.23375 26.3969 7.31989 24.8021C7.40164 23.2887 6.41104 21.9252 4.9464 21.5353C3.40305 21.1244 2.79682 19.2586 3.80389 18.019C4.75961 16.8427 4.75961 15.1573 3.80389 13.981C2.79682 12.7414 3.40305 10.8756 4.9464 10.4647C6.41104 10.0748 7.40164 8.71134 7.31989 7.19789C7.23375 5.60311 8.82089 4.44999 10.311 5.02472C11.7251 5.57015 13.3279 5.04936 14.1514 3.7769Z" fill="#26235B" stroke="#BCBBCC"/>
<g clip-path="url(#clip0_20_3157)">
<path d="M17.8762 15.8761L18.1835 14.3275L21.731 18.5553L21.9225 18.3946L21.731 18.5553C21.7958 18.6326 21.7858 18.7478 21.7085 18.8127L21.0456 19.3689C20.9683 19.4338 20.853 19.4237 20.7882 19.3464L17.8762 15.8761Z" fill="#161616" stroke="#9A5615" stroke-width="0.5"/>
<path d="M23.134 13.3482V14.2136C23.134 14.3145 23.0522 14.3963 22.9513 14.3963H20.0242L18.9914 13.1655H22.9513C23.0522 13.1655 23.134 13.2473 23.134 13.3482Z" fill="#161616" stroke="#9A5615" stroke-width="0.5"/>
<path d="M8.86548 14.2136V13.3482C8.86548 13.2473 8.94728 13.1655 9.04817 13.1655H13.008L11.9753 14.3963H9.04817C8.94728 14.3963 8.86548 14.3145 8.86548 14.2136Z" fill="#161616" stroke="#9A5615" stroke-width="0.5"/>
<path d="M10.2904 18.8127L10.2904 18.8127C10.2131 18.7478 10.203 18.6326 10.2679 18.5553L10.0763 18.3946L10.2679 18.5553L13.8154 14.3275L14.1227 15.8761L11.2107 19.3464C11.1458 19.4237 11.0306 19.4338 10.9533 19.3689L10.2904 18.8127Z" fill="#161616" stroke="#9A5615" stroke-width="0.5"/>
<path d="M14.9043 12.8069L14.9043 12.8069C14.8819 12.6939 14.9683 12.5886 15.0835 12.5886H16.9141C17.0293 12.5886 17.1157 12.6939 17.0933 12.8069C17.0933 12.8069 17.0933 12.8069 17.0933 12.8069L16.6062 15.2617H15.3914L14.9043 12.8069Z" fill="#161616" stroke="#9A5615" stroke-width="0.5"/>
</g>
<path d="M10.2853 25.0834H8.25V20.9167H9.89295C10.7557 20.9167 11.3342 21.013 11.6655 21.1765L11.6655 21.1765L11.6693 21.1783C11.8329 21.2557 11.9407 21.3492 12.0086 21.4523C12.076 21.5547 12.1146 21.6824 12.1146 21.8466C12.1146 22.079 12.0473 22.243 11.9301 22.3639L11.9301 22.3639L11.9267 22.3674C11.8124 22.4901 11.6433 22.5755 11.3934 22.6053L11.173 22.6316V22.8535V22.8911V23.103L11.3821 23.1377C11.7507 23.1989 11.9687 23.3079 12.0846 23.4308C12.2019 23.5553 12.2715 23.7296 12.2715 23.9808C12.2715 24.3075 12.1252 24.5639 11.786 24.7651C11.4399 24.9693 10.947 25.0834 10.2853 25.0834ZM9.04466 22.5154V22.7654H9.29466H10.0401C10.4006 22.7654 10.7063 22.7263 10.9188 22.6178L10.9189 22.6179L10.9244 22.6149C11.0385 22.5529 11.1338 22.466 11.1989 22.3517C11.2635 22.2382 11.2905 22.1117 11.2905 21.9818C11.2905 21.8512 11.2592 21.7239 11.1849 21.6123C11.1115 21.502 11.0075 21.4239 10.8894 21.3712C10.6671 21.2673 10.3502 21.2283 9.97142 21.2283H9.29466H9.04466V21.4783V22.5154ZM9.29466 23.0469H9.04466V23.2969V24.5143V24.7643H9.29466H10.1382C10.5019 24.7643 10.8165 24.7106 11.0476 24.5702C11.299 24.4176 11.4278 24.1768 11.4278 23.8831C11.4278 23.7452 11.3953 23.6129 11.3223 23.495C11.2498 23.3778 11.1459 23.2889 11.0241 23.2233C10.7882 23.0963 10.4663 23.0469 10.0891 23.0469H9.29466ZM16.0245 25.0834H13.9892V20.9167H15.6322C16.4949 20.9167 17.0734 21.013 17.4047 21.1765L17.4047 21.1765L17.4085 21.1783C17.5722 21.2557 17.68 21.3492 17.7479 21.4523C17.8152 21.5547 17.8538 21.6824 17.8538 21.8466C17.8538 22.079 17.7865 22.243 17.6693 22.3639L17.6693 22.3639L17.666 22.3674C17.5516 22.4901 17.3826 22.5755 17.1327 22.6053L16.9123 22.6316V22.8535V22.8911V23.103L17.1213 23.1377C17.4899 23.1989 17.708 23.3079 17.8238 23.4308L18.0057 23.2593L17.8238 23.4308C17.9412 23.5553 18.0108 23.7296 18.0108 23.9808C18.0108 24.3074 17.8644 24.5638 17.5254 24.7651C17.1793 24.9693 16.6863 25.0834 16.0245 25.0834ZM14.7839 22.5154V22.7654H15.0339H15.7793C16.1399 22.7654 16.4455 22.7263 16.6581 22.6178L16.6581 22.6179L16.6636 22.6149C16.7777 22.5529 16.873 22.466 16.9381 22.3517C17.0028 22.2382 17.0297 22.1117 17.0297 21.9818C17.0297 21.8512 16.9984 21.7239 16.9241 21.6123C16.8507 21.502 16.7467 21.4239 16.6286 21.3712C16.4064 21.2673 16.0894 21.2283 15.7107 21.2283H15.0339H14.7839V21.4783V22.5154ZM15.0339 23.0469H14.7839V23.2969V24.5143V24.7643H15.0339H15.8774C16.2411 24.7643 16.5557 24.7106 16.7869 24.5702C17.0382 24.4176 17.1671 24.1768 17.1671 23.8831C17.1671 23.7452 17.1346 23.6129 17.0616 23.495C16.989 23.3778 16.8851 23.2889 16.7634 23.2233C16.5274 23.0963 16.2055 23.0469 15.8284 23.0469H15.0339ZM21.7638 25.0834H19.7285V20.9167H21.3714C22.2342 20.9167 22.8126 21.013 23.144 21.1765L23.1439 21.1765L23.1478 21.1783C23.3114 21.2557 23.4192 21.3492 23.4871 21.4523C23.5545 21.5547 23.5931 21.6824 23.5931 21.8466C23.5931 22.079 23.5258 22.243 23.4086 22.3639L23.4085 22.3639L23.4052 22.3674C23.2909 22.4901 23.1218 22.5755 22.8719 22.6053L22.6515 22.6316V22.8535V22.8911V23.103L22.8606 23.1377C23.2291 23.1989 23.4472 23.3079 23.5631 23.4308C23.6804 23.5553 23.75 23.7296 23.75 23.9808C23.75 24.3075 23.6036 24.5639 23.2644 24.7652C22.9183 24.9693 22.4255 25.0834 21.7638 25.0834ZM20.5231 22.5154V22.7654H20.7731H21.5186C21.8791 22.7654 22.1848 22.7263 22.3973 22.6178L22.3973 22.6179L22.4028 22.6149C22.517 22.5529 22.6123 22.466 22.6774 22.3517C22.742 22.2382 22.769 22.1117 22.769 21.9818C22.769 21.8512 22.7377 21.7239 22.6634 21.6123C22.59 21.502 22.486 21.4239 22.3678 21.3712C22.1456 21.2673 21.8286 21.2283 21.4499 21.2283H20.7731H20.5231V21.4783V22.5154ZM20.7731 23.0469H20.5231V23.2969V24.5143V24.7643H20.7731H21.6166C21.9803 24.7643 22.2949 24.7106 22.5261 24.5702C22.7775 24.4176 22.9063 24.1768 22.9063 23.8831C22.9063 23.7452 22.8738 23.6129 22.8008 23.495C22.7283 23.3778 22.6244 23.2889 22.5026 23.2233C22.2667 23.0963 21.9448 23.0469 21.5676 23.0469H20.7731Z" fill="#161616" stroke="#9A5615" stroke-width="0.5"/>
</g>
<defs>
<clipPath id="clip0_20_3157">
<rect width="14.7692" height="14.7692" fill="white" transform="translate(8.61548 8.61548)"/>
</clipPath>
</defs>
</svg>
