<svg width="32" height="32" viewBox="0 0 32 32" fill="none" xmlns="http://www.w3.org/2000/svg">
<path d="M14.1514 3.7769C15.0191 2.43607 16.9809 2.43607 17.8486 3.77691C18.6721 5.04936 20.2749 5.57015 21.689 5.02472C23.1791 4.44999 24.7662 5.60311 24.6801 7.19789C24.5984 8.71134 25.589 10.0748 27.0536 10.4647C28.5969 10.8756 29.2032 12.7414 28.1961 13.981C27.2404 15.1573 27.2404 16.8427 28.1961 18.019C29.2032 19.2586 28.5969 21.1244 27.0536 21.5353C25.589 21.9252 24.5984 23.2887 24.6801 24.8021C24.7662 26.3969 23.1791 27.55 21.689 26.9753C20.2749 26.4298 18.6721 26.9506 17.8486 28.2231C16.9809 29.5639 15.0191 29.5639 14.1514 28.2231C13.3279 26.9506 11.7251 26.4298 10.311 26.9753C8.82089 27.55 7.23375 26.3969 7.31989 24.8021C7.40164 23.2887 6.41104 21.9252 4.9464 21.5353C3.40305 21.1244 2.79682 19.2586 3.80389 18.019C4.75961 16.8427 4.75961 15.1573 3.80389 13.981C2.79682 12.7414 3.40305 10.8756 4.9464 10.4647C6.41104 10.0748 7.40164 8.71134 7.31989 7.19789C7.23375 5.60311 8.82089 4.44999 10.311 5.02472C11.7251 5.57015 13.3279 5.04936 14.1514 3.7769Z" fill="#26235B" stroke="#BCBBCC"/>
<path d="M15.8503 25.8463H14.5317L13.7932 22.9804C13.7815 22.9452 13.761 22.8661 13.7317 22.743C13.7082 22.6199 13.6818 22.4881 13.6525 22.3474C13.6232 22.2067 13.5969 22.0749 13.5734 21.9518C13.55 21.8287 13.5383 21.7496 13.5383 21.7144L13.424 22.3474L13.2921 22.9892L12.5536 25.8463H11.235L9.84595 20.387H10.9888L11.6833 23.3672C11.7478 23.6485 11.8005 23.9064 11.8416 24.1408C11.8826 24.3752 11.9177 24.595 11.947 24.8001C11.9529 24.7357 11.9646 24.6419 11.9822 24.5188C12.0057 24.3958 12.0291 24.2668 12.0525 24.132C12.0818 23.9972 12.1082 23.8683 12.1317 23.7452C12.161 23.6163 12.1844 23.5166 12.202 23.4463L13.002 20.387H14.0921L14.8833 23.4463C14.9009 23.5049 14.9214 23.5928 14.9448 23.71C14.9683 23.8214 14.9917 23.9445 15.0152 24.0793C15.0445 24.2082 15.0679 24.3401 15.0855 24.4749C15.109 24.6038 15.1265 24.7122 15.1383 24.8001C15.15 24.7005 15.1617 24.5921 15.1734 24.4749C15.191 24.3518 15.2174 24.217 15.2525 24.0705L16.1053 20.387H17.2394L15.8503 25.8463Z" fill="white"/>
<path d="M17.9235 20.387H19.6202C20.3997 20.387 20.9623 20.4983 21.3081 20.721C21.6598 20.9379 21.8356 21.2866 21.8356 21.7672C21.8356 22.1012 21.7594 22.3708 21.607 22.576C21.4605 22.7811 21.2554 22.9042 20.9916 22.9452V22.9892C21.3433 23.0654 21.5953 23.2089 21.7477 23.4199C21.9 23.6309 21.9762 23.9122 21.9762 24.2639C21.9762 24.7621 21.7945 25.1518 21.4312 25.4331C21.0737 25.7086 20.5872 25.8463 19.9718 25.8463H17.9235V20.387ZM19.0839 22.5496H19.7521C20.0685 22.5496 20.2971 22.5027 20.4378 22.4089C20.5784 22.3093 20.6488 22.1481 20.6488 21.9254C20.6488 21.7144 20.5726 21.565 20.4202 21.4771C20.2678 21.3833 20.0246 21.3364 19.6905 21.3364H19.0839V22.5496ZM19.0839 23.4639V24.8881H19.84C20.4612 24.8881 20.7718 24.6419 20.7718 24.1496C20.7718 23.6925 20.4466 23.4639 19.796 23.4639H19.0839Z" fill="white"/>
<g clip-path="url(#clip0_20_3045)">
<path d="M21.9225 18.3946L18.0398 13.7673L17.6077 15.945L20.5967 19.5071C20.7503 19.6902 21.0232 19.7141 21.2063 19.5605L21.8692 19.0042C22.0522 18.8506 22.0761 18.5777 21.9225 18.3946Z" fill="#F6F6F6"/>
<path d="M23.384 14.2136V13.3482C23.384 13.1093 23.1902 12.9155 22.9513 12.9155H18.4553L19.9076 14.6463H22.9513C23.1902 14.6463 23.384 14.4526 23.384 14.2136Z" fill="#F6F6F6"/>
<path d="M8.61548 13.3482V14.2136C8.61548 14.4526 8.80921 14.6463 9.04817 14.6463H12.0918L13.5441 12.9155H9.04817C8.80921 12.9155 8.61548 13.1093 8.61548 13.3482Z" fill="#F6F6F6"/>
<path d="M10.1297 19.0042L10.7926 19.5605C10.9757 19.7141 11.2486 19.6902 11.4022 19.5071L14.3912 15.945L13.9591 13.7673L10.0763 18.3946C9.92274 18.5777 9.94659 18.8506 10.1297 19.0042Z" fill="#F6F6F6"/>
<path d="M16.9141 12.3386H15.0835C14.8107 12.3386 14.606 12.588 14.6591 12.8555L15.1861 15.5117H16.8115L17.3385 12.8555C17.3916 12.588 17.1869 12.3386 16.9141 12.3386Z" fill="#F6F6F6"/>
</g>
<defs>
<clipPath id="clip0_20_3045">
<rect width="14.7692" height="14.7692" fill="white" transform="translate(8.61548 8.61548)"/>
</clipPath>
</defs>
</svg>
