<svg width="32" height="32" viewBox="0 0 32 32" fill="none" xmlns="http://www.w3.org/2000/svg">
<g opacity="0.5">
<path d="M14.1514 3.7769C15.0191 2.43607 16.9809 2.43607 17.8486 3.77691C18.6721 5.04936 20.2749 5.57015 21.689 5.02472C23.1791 4.44999 24.7662 5.60311 24.6801 7.19789C24.5984 8.71134 25.589 10.0748 27.0536 10.4647C28.5969 10.8756 29.2032 12.7414 28.1961 13.981C27.2404 15.1573 27.2404 16.8427 28.1961 18.019C29.2032 19.2586 28.5969 21.1244 27.0536 21.5353C25.589 21.9252 24.5984 23.2887 24.6801 24.8021C24.7662 26.3969 23.1791 27.55 21.689 26.9753C20.2749 26.4298 18.6721 26.9506 17.8486 28.2231C16.9809 29.5639 15.0191 29.5639 14.1514 28.2231C13.3279 26.9506 11.7251 26.4298 10.311 26.9753C8.82089 27.55 7.23375 26.3969 7.31989 24.8021C7.40164 23.2887 6.41104 21.9252 4.9464 21.5353C3.40305 21.1244 2.79682 19.2586 3.80389 18.019C4.75961 16.8427 4.75961 15.1573 3.80389 13.981C2.79682 12.7414 3.40305 10.8756 4.9464 10.4647C6.41104 10.0748 7.40164 8.71134 7.31989 7.19789C7.23375 5.60311 8.82089 4.44999 10.311 5.02472C11.7251 5.57015 13.3279 5.04936 14.1514 3.7769Z" fill="#26235B" stroke="#BCBBCC"/>
<g clip-path="url(#clip0_20_3059)">
<path d="M21.9225 18.3946L18.0398 13.7673L17.6077 15.945L20.5967 19.5071C20.7503 19.6902 21.0232 19.7141 21.2063 19.5605L21.8692 19.0042C22.0522 18.8506 22.0761 18.5777 21.9225 18.3946Z" fill="#E5D400"/>
<path d="M23.384 14.2136V13.3482C23.384 13.1093 23.1902 12.9155 22.9513 12.9155H18.4553L19.9076 14.6463H22.9513C23.1902 14.6463 23.384 14.4526 23.384 14.2136Z" fill="#E5D400"/>
<path d="M8.61548 13.3482V14.2136C8.61548 14.4526 8.80921 14.6463 9.04817 14.6463H12.0918L13.5441 12.9155H9.04817C8.80921 12.9155 8.61548 13.1093 8.61548 13.3482Z" fill="#E5D400"/>
<path d="M10.1297 19.0042L10.7926 19.5605C10.9757 19.7141 11.2486 19.6902 11.4022 19.5071L14.3912 15.945L13.9591 13.7673L10.0763 18.3946C9.92274 18.5777 9.94659 18.8506 10.1297 19.0042Z" fill="#E5D400"/>
<path d="M16.9141 12.3386H15.0835C14.8107 12.3386 14.606 12.588 14.6591 12.8555L15.1861 15.5117H16.8115L17.3385 12.8555C17.3916 12.588 17.1869 12.3386 16.9141 12.3386Z" fill="#E5D400"/>
</g>
<path d="M13.2477 22.4381L14.4858 20H15.8382L13.8763 23.6095V25.9143H12.6287V23.6571L10.6667 20H12.0287L13.2477 22.4381Z" fill="#E5D400"/>
<path d="M16.5789 20H18.417C19.2614 20 19.8709 20.1206 20.2455 20.3619C20.6265 20.5968 20.817 20.9746 20.817 21.4952C20.817 21.8571 20.7344 22.1492 20.5694 22.3714C20.4106 22.5937 20.1884 22.727 19.9027 22.7714V22.819C20.2836 22.9016 20.5567 23.0571 20.7217 23.2857C20.8868 23.5143 20.9694 23.819 20.9694 24.2C20.9694 24.7397 20.7725 25.1619 20.3789 25.4667C19.9916 25.7651 19.4646 25.9143 18.7979 25.9143H16.5789V20ZM17.836 22.3429H18.5598C18.9027 22.3429 19.1503 22.2921 19.3027 22.1905C19.4551 22.0825 19.5313 21.9079 19.5313 21.6667C19.5313 21.4381 19.4487 21.2762 19.2836 21.181C19.1186 21.0794 18.8551 21.0286 18.4932 21.0286H17.836V22.3429ZM17.836 23.3333V24.8762H18.6551C19.3281 24.8762 19.6646 24.6095 19.6646 24.0762C19.6646 23.581 19.3122 23.3333 18.6074 23.3333H17.836Z" fill="#E5D400"/>
</g>
<defs>
<clipPath id="clip0_20_3059">
<rect width="14.7692" height="14.7692" fill="white" transform="translate(8.61548 8.61548)"/>
</clipPath>
</defs>
</svg>
