<svg width="246" height="165" viewBox="0 0 246 165" fill="none" xmlns="http://www.w3.org/2000/svg">
<path d="M166.431 53.1615L241.502 0.488542C242.412 -0.15011 243.663 0.0759476 244.296 0.992824C244.93 1.9097 244.706 3.16962 243.796 3.80827C243.774 3.82408 243.746 3.84305 243.722 3.85728L166.431 53.1615Z" fill="#C5C5C5"/>
<path d="M210.153 37.8954L228.985 23.9984C229.883 23.336 231.142 23.532 231.8 24.4363C232.457 25.3405 232.263 26.6099 231.365 27.2723C231.274 27.3402 231.167 27.4035 231.069 27.4541L210.153 37.8954Z" fill="#C5C5C5"/>
<path d="M75.2397 147.524L28.2734 180.296C27.3619 180.932 26.1114 180.704 25.4791 179.786C24.8484 178.867 25.0744 177.607 25.9859 176.97C26.0236 176.943 26.0659 176.917 26.1052 176.893L75.2397 147.524Z" fill="#C5C5C5"/>
<path d="M49.1801 132.558L28.3461 147.413C27.4392 148.06 26.1825 147.843 25.5408 146.929C24.8991 146.016 25.1141 144.749 26.0209 144.103C26.1056 144.043 26.2029 143.986 26.2923 143.94L49.1801 132.558Z" fill="#C5C5C5"/>
<path d="M31.4714 66.0342L2.14789 68.0561C1.04021 68.132 0.0800216 67.2894 0.00471245 66.1733C-0.0705967 65.0573 0.765649 64.0898 1.87332 64.0139C1.96275 64.0076 2.06159 64.0092 2.14789 64.0139L31.4714 66.0342Z" fill="#C5C5C5"/>
<path d="M176.055 139.117L216.355 176.787C217.168 177.547 217.215 178.826 216.462 179.645C215.707 180.464 214.438 180.511 213.625 179.752C213.591 179.719 213.553 179.683 213.521 179.648L176.055 139.117Z" fill="#C5C5C5"/>
</svg>
