<svg width="208" height="161" viewBox="0 0 208 161" fill="none" xmlns="http://www.w3.org/2000/svg">
<path fill-rule="evenodd" clip-rule="evenodd" d="M112.471 159.316L111.905 159.591C109.938 160.546 107.936 160.115 105.92 159.648L105.862 159.635L105.841 159.628L104.983 159.939C103.988 160.3 103.11 160.623 102.024 160.463C100.877 160.296 99.7506 160.008 98.6471 159.653L98.5949 159.636C98.4425 159.733 98.2793 159.813 98.1081 159.878C97.2935 160.183 96.8407 160.021 96.077 160.027L95.9425 160.027L95.8101 160.007C94.5655 159.813 93.3222 159.538 92.1512 159.064L91.6208 159.185C89.3817 159.698 87.471 158.919 85.4285 158.177L84.8961 158.231C82.6737 158.455 80.7035 157.641 78.78 156.655L78.156 156.681C76.1978 156.761 74.3219 156.074 72.6412 155.107L71.6748 154.994C69.5949 154.75 67.761 153.765 66.0596 152.593L65.6008 152.573C63.22 152.468 61.4403 151.153 59.6045 149.803L59.2741 149.769C57.0062 149.537 55.1737 148.167 53.5907 146.615L53.4596 146.602C50.9945 146.361 49.5091 144.73 47.9133 143.09L47.5188 143.015C45.2161 142.575 43.6411 140.948 42.25 139.176L42.0099 139.119C41.3532 138.964 40.7459 138.686 40.1882 138.306C38.7737 137.342 38.0808 136.061 36.9733 134.867L36.9632 134.864C35.7501 134.62 34.9368 133.888 34.0968 133.037L34.0821 133.023L34.0674 133.006C33.3658 132.26 32.7893 131.42 32.273 130.539L31.7159 130.262C30.6171 129.714 29.6246 129.024 28.9478 127.969C28.4174 127.143 27.8623 126.393 27.4611 125.5C26.7501 125.337 26.2111 124.915 25.6486 124.399L25.6246 124.377L25.6012 124.354C24.4368 123.198 23.5814 121.758 23.0297 120.212C22.6699 120.127 22.3214 119.948 22.0292 119.671C20.4996 118.472 19.5981 116.695 19.0918 114.84L18.8838 114.694C17.3015 113.588 16.2695 111.9 15.6462 110.092C15.5278 109.75 15.4362 109.399 15.3827 109.046C13.781 108.357 13.1777 106.822 12.6855 105.238L12.6668 105.178L12.6527 105.117C12.4909 104.415 12.2381 103.744 12.0535 103.045L11.8823 102.924C11.3038 102.517 10.839 101.998 10.4838 101.385C9.9702 100.497 9.7515 99.5319 9.55555 98.5354C9.4472 97.9839 9.34421 97.363 9.13956 96.8398L9.10879 96.7616C8.82121 96.5937 8.57176 96.3537 8.35507 96.0759C7.1352 94.5792 6.94392 92.8465 6.70851 91.0099C6.69781 90.9553 6.68844 90.8993 6.68109 90.8441L6.22163 90.1773C5.03921 88.4614 4.52557 86.3397 4.67538 84.2651C4.68274 84.168 4.6921 84.0716 4.70548 83.9759C3.67688 83.2329 3.30904 82.0052 3.15255 80.7451L3.14519 80.6864L3.14185 80.6278C3.08768 79.6367 3.11911 78.6126 2.98 77.6302L2.94522 77.3828L2.88369 77.3019C1.46586 75.4289 1.58089 73.1953 1.81965 70.994L1.71331 70.9684L1.3729 70.2449C0.541591 68.4778 0.599107 66.5409 1.0171 64.6854L0.722833 64.6544L0.488087 63.4314C0.124934 61.5402 0.393788 59.7003 0.725508 57.8281L0.73019 57.8018L0.73554 57.7761C0.74624 57.7236 0.75761 57.6716 0.768979 57.6197L0.529552 56.9988C-0.186053 55.1461 0.0139151 53.1902 0.538247 51.328L0.459998 49.8252C0.361686 47.9462 0.66331 46.0753 1.21105 44.2832L1.12277 43.2294C0.943534 41.0922 1.49662 39.0628 2.24701 37.0914L2.19952 36.6148C1.9815 34.4202 2.74057 32.3497 3.78455 30.4673L3.75513 29.8396C3.65815 27.7725 4.37443 25.7499 5.45452 24.0145L5.46523 23.4846C5.50736 21.3992 6.4343 19.6173 7.53647 17.9237L7.73109 16.7978C8.03873 15.0145 8.91083 13.4833 9.94478 12.0331L9.98692 11.9738L10.0183 11.9374C10.0585 11.8774 10.0966 11.8012 10.1327 11.7385C10.2404 11.5477 10.3561 11.3704 10.4832 11.2079L10.5547 10.6921C10.8543 8.53803 12.097 6.65901 13.6706 5.21755L13.7154 4.88449C14.0237 2.60769 15.4576 0.64035 17.3209 -0.625813L17.3322 -0.749195C17.4011 -1.51105 17.3918 -2.06929 17.7803 -2.76643C18.5688 -4.31373 19.7927 -5.30887 21.0821 -6.37075L21.1056 -6.49278C21.2266 -7.1326 21.4667 -7.7286 21.8091 -8.2801C22.7508 -9.79707 24.0543 -10.4645 25.2521 -11.6404L25.333 -11.7199C25.438 -12.4858 25.8165 -13.0913 26.3021 -13.6994C27.2792 -14.9251 28.5398 -15.8164 29.8767 -16.5944C30.1028 -18.0285 31.0986 -18.9481 32.2041 -19.8104L32.2436 -19.8414L32.2851 -19.8697C32.9378 -20.3188 33.5725 -20.759 34.2687 -21.1076L34.7114 -21.7724C35.9239 -23.5921 37.7036 -25.1191 39.8217 -25.703C40.0076 -26.512 40.5439 -27.1148 41.1947 -27.6818C42.2427 -28.5954 43.4518 -29.072 44.7259 -29.5669C44.8389 -29.6141 44.9533 -29.6539 45.0683 -29.6862L45.2904 -29.9964C46.6079 -31.8363 48.6871 -32.9177 50.846 -33.4126L50.9269 -33.5521C52.0364 -35.4743 53.8957 -35.9227 55.8245 -36.5422L55.9047 -36.5679L55.987 -36.5854C56.0846 -36.607 56.2117 -36.6609 56.3073 -36.6946C56.5033 -36.7647 56.6959 -36.8234 56.8878 -36.8652C57.0383 -37.2765 57.2677 -37.6142 57.6804 -37.8799C59.2781 -39.1076 60.9467 -39.2189 62.7913 -39.6807L62.7899 -39.7036L63.3631 -40.2437C65.0304 -41.8146 67.1096 -41.9926 69.2404 -42.2103C69.7233 -42.9749 70.4503 -43.2776 71.3063 -43.6262L71.3464 -43.6423L71.3879 -43.6565C72.7261 -44.1217 74.0804 -44.1534 75.4729 -44.1305L75.5879 -44.2498C76.1015 -44.7851 76.7128 -45.1782 77.4037 -45.4371C78.974 -46.025 80.2768 -45.7681 81.8337 -45.9313C81.93 -45.9434 82.025 -45.9495 82.1173 -45.9502L82.4323 -46.1551C84.2721 -47.3505 86.4203 -47.4449 88.5136 -47.1455L89.151 -47.4563C91.0697 -48.3915 93.2219 -48.3045 95.255 -47.8629L95.7814 -48.1171C97.9522 -49.1648 100.009 -48.591 102.158 -48.0631C102.343 -48.2735 102.582 -48.4521 102.877 -48.5856L103.02 -48.651L103.173 -48.6881C105.065 -49.1446 107.013 -48.8567 108.817 -48.1946L109.58 -48.318C111.491 -48.6281 113.34 -48.2782 115.148 -47.7098L116.297 -47.8009C118.348 -47.9627 120.402 -47.5123 122.286 -46.7053L122.982 -46.7504C125.123 -46.89 127.249 -46.2273 129.075 -45.1216L129.426 -45.1586C131.683 -45.3993 133.579 -44.4312 135.502 -43.3848L135.635 -43.3127C136.253 -43.4104 136.843 -43.3524 137.46 -43.2419L137.621 -43.2129L137.773 -43.1529C139.126 -42.6202 140.41 -41.9339 141.64 -41.1606L142.168 -41.1275C144.517 -40.9819 146.263 -39.7023 148.092 -38.3801L148.738 -38.246C150.765 -37.8232 152.645 -36.7317 154.004 -35.1594L154.228 -35.1453C156.321 -35.0152 157.772 -33.7059 159.191 -32.2974L159.227 -32.2617L159.26 -32.2239C159.329 -32.1484 159.437 -32.0655 159.515 -31.9974C159.643 -31.8855 159.765 -31.7695 159.876 -31.6495L160.189 -31.5969C162.102 -31.2753 163.601 -30.0011 164.77 -28.5077L164.792 -28.4794C164.878 -28.3648 164.981 -28.2542 165.074 -28.1443C165.196 -27.998 165.31 -27.8497 165.411 -27.6973L165.445 -27.6926C166.245 -27.576 166.979 -27.3656 167.621 -26.8444C168.86 -25.8682 169.724 -24.662 170.727 -23.4768L170.994 -23.3824C173.135 -22.6252 174.337 -20.8939 175.512 -19.0897L176.014 -18.8632C178.109 -17.9186 179.28 -16.0288 180.282 -14.0567C181.413 -13.7554 182.142 -12.9618 182.881 -12.0725L182.923 -12.022L182.96 -11.9687C183.618 -11.0376 184.24 -10.1038 184.605 -9.03656L184.962 -8.83161C187.039 -7.63893 187.94 -5.53473 188.679 -3.36984C189.332 -3.12443 189.738 -2.64574 190.241 -2.07604L190.258 -2.05716L190.274 -2.03761C191.153 -0.979773 191.727 0.272232 192.143 1.57817C192.229 1.84718 192.3 2.11619 192.346 2.3852C193.288 2.81265 193.835 3.58462 194.352 4.4712L194.37 4.50087L194.386 4.53121C194.993 5.67601 195.228 6.84374 195.637 8.04046L196.26 8.68298C196.738 9.17515 197.116 9.73947 197.412 10.3597C198.05 11.698 198.179 13.0188 198.547 14.3854L198.884 14.7488C200.371 16.3535 200.777 18.3956 201.008 20.483L201.425 21.0547C202.738 22.8582 203.033 25.0292 202.926 27.1934C202.944 27.2048 202.962 27.2156 202.979 27.2278C203.636 27.6593 203.723 28.0604 204.06 28.6517L204.159 28.8067L204.225 28.9901C204.837 30.7073 204.624 32.2398 204.698 33.9826C205.281 34.4647 205.496 35.1194 205.757 35.8974L205.774 35.9507L205.789 36.0053C206.181 37.5047 206.049 38.957 205.923 40.4753L206.049 40.6796C206.437 41.3073 206.745 41.9033 206.833 42.6523L206.835 42.6745L206.837 42.6968C206.97 44.1935 206.956 45.7071 206.636 47.1756L206.881 47.6677C207.21 48.3258 207.394 49.0276 207.455 49.7612C207.576 51.2431 207.196 52.4829 206.909 53.8442L207.22 54.6768C207.973 56.6927 207.643 58.8016 207.03 60.7993L207.169 61.576C207.536 63.6262 206.963 65.3859 206.426 67.2784L206.59 68.2985C206.94 70.4735 206.162 72.0984 205.622 74.123L205.505 74.5612C205.844 76.8299 204.974 78.8162 204.031 80.8058C204.001 80.8779 203.967 80.9487 203.931 81.0168L203.961 81.3424C204.153 83.4487 203.395 85.4126 202.38 87.2074L202.316 87.9719C202.15 89.973 201.266 91.7691 200.155 93.3973L200.024 94.3708C199.736 96.4993 198.617 98.1167 197.468 99.8495L197.425 99.9148L197.386 99.9634C197.324 100.048 197.262 100.129 197.199 100.206L197.171 100.511C196.961 102.754 195.675 104.676 194.106 106.21L194.058 106.565C193.72 109.06 192.054 110.559 190.395 112.204L190.391 112.261C190.223 114.724 188.522 116.247 186.774 117.684L186.66 118.095C186.47 118.781 186.156 119.408 185.74 119.983C184.907 121.136 183.867 121.825 182.874 122.717L182.317 123.774C181.352 125.605 179.763 126.877 178.032 127.92L177.882 128.306C177.03 130.504 175.157 131.638 173.204 132.675L173.083 132.928C172.182 134.811 170.48 136.055 168.643 136.917C168.415 137.037 168.175 137.13 167.93 137.195L167.904 137.492L167.652 137.859C166.467 139.584 164.623 140.578 162.669 141.16L162.464 141.446C161.151 143.284 159.098 144.303 156.976 144.877C156.964 144.881 156.951 144.885 156.938 144.888L156.811 145.095C155.603 147.059 153.707 147.387 151.73 148.049L151.634 148.081L151.544 148.099C151.488 148.114 151.424 148.138 151.364 148.16L150.552 148.9C148.857 150.445 146.876 150.722 144.758 151.182C144.561 151.61 144.264 151.843 143.874 152.13L143.804 152.195L143.679 152.275C142.112 153.283 140.317 153.559 138.504 153.664C138.044 154.395 137.418 154.612 136.635 154.996L136.616 155.004L136.598 155.013C135.17 155.669 133.666 155.726 132.144 155.62C132.121 155.658 132.098 155.695 132.073 155.731C131.719 156.245 131.409 156.362 130.941 156.662L130.849 156.722L130.749 156.77C129.005 157.605 127.47 157.368 125.7 157.405L125.281 157.672C123.495 158.81 121.415 158.902 119.379 158.672L119.342 158.667C119.238 158.654 119.136 158.636 119.034 158.615L118.827 158.755C117.224 159.837 115.572 159.665 113.766 159.571L113.637 159.564L113.51 159.537C113.147 159.46 112.801 159.396 112.471 159.316ZM103.721 148.514L104.373 148.215C105.007 147.924 105.675 147.781 106.371 147.764C107.257 147.743 108.097 147.929 108.956 148.118C109.291 148.192 109.655 148.274 110.013 148.316L110.655 148.007C112.32 147.205 114.184 147.278 115.937 147.714L116.354 147.48C118.047 146.528 120.082 146.313 121.958 146.762L122.246 146.543C123.895 145.29 125.936 145.133 127.893 145.472C127.939 145.386 127.992 145.301 128.05 145.22C128.526 144.56 129.118 144.354 129.829 144.11L129.909 144.082L129.991 144.063C131.09 143.808 132.152 143.848 133.22 143.766L134.153 143.067C135.565 142.009 137.26 141.536 138.988 141.411L139.611 140.868C141.058 139.606 142.826 139.214 144.647 139.029L144.777 138.826C145.832 137.174 147.532 136.725 149.297 136.291L149.327 136.284L149.356 136.278C149.522 136.244 149.691 136.188 149.853 136.139C149.902 136.124 149.951 136.11 150 136.096L150.319 135.63C150.702 135.071 151.187 134.617 151.758 134.258C152.472 133.807 153.242 133.551 154.039 133.302C154.478 133.164 154.95 133.026 155.332 132.838C155.349 132.829 155.367 132.82 155.385 132.812C155.49 132.197 155.795 131.64 156.291 131.243C157.461 130.215 158.644 130.005 159.971 129.364L160.33 128.731C161.154 127.283 162.451 126.589 163.844 125.826L163.904 125.793L163.968 125.765C164.134 125.691 164.298 125.596 164.459 125.511C164.577 125.448 164.696 125.388 164.813 125.333L164.773 125.081L165.076 124.561C166.013 122.953 167.496 122.096 169.077 121.268L169.094 121.26L169.112 121.251C169.148 121.233 169.183 121.215 169.219 121.198C169.227 121.078 169.238 120.958 169.245 120.839L169.278 120.32L169.596 119.911C170.459 118.795 171.553 117.966 172.72 117.2L172.745 117.183L172.768 117.169C172.849 117.115 172.952 117.014 173.025 116.949C173.116 116.868 173.206 116.79 173.297 116.717L173.322 116.531C173.493 115.25 174.29 114.382 175.239 113.594L175.258 113.578L175.277 113.562C175.831 113.129 176.38 112.683 176.89 112.196L177.137 111.421C177.669 109.753 178.821 108.874 180.013 107.732L180.035 107.712L180.057 107.692C180.143 107.616 180.234 107.5 180.309 107.411C180.364 107.348 180.419 107.287 180.474 107.226L180.558 106.631C180.768 105.138 181.626 104.298 182.522 103.212L182.566 103.158L182.615 103.109C182.896 102.82 183.148 102.486 183.398 102.154L183.645 101.135C183.775 100.596 183.986 100.089 184.258 99.6081C184.665 98.8887 185.184 98.2772 185.714 97.6502C185.83 97.512 185.95 97.3711 186.067 97.2261L185.941 97.1978L186.367 95.5143C186.514 94.9352 186.743 94.389 187.032 93.8679C187.475 93.071 188.069 92.3718 188.597 91.6491L188.79 90.1806C188.863 89.6264 189.02 89.0945 189.239 88.5814C189.529 87.9052 189.912 87.2984 190.301 86.6781C190.521 86.3255 190.76 85.9479 190.938 85.5576L190.897 84.8247C190.866 84.2658 190.934 83.7075 191.084 83.1695C191.422 81.956 192.075 81.1125 192.605 80.0237L192.637 79.9596L192.673 79.8983C192.71 79.8356 192.745 79.7587 192.777 79.6832L192.72 78.5977C192.637 77.0221 193.225 75.6427 193.888 74.2585C193.929 74.1709 193.971 74.0846 194.014 73.9996L193.867 73.3841C193.701 72.6896 193.701 71.9925 193.843 71.2933C194.009 70.4776 194.346 69.7656 194.689 69.0165C194.805 68.7617 194.94 68.4711 195.039 68.1772L194.893 66.7654C194.738 65.2585 195.03 63.7874 195.516 62.3682L195.525 62.3432L195.533 62.3203C195.569 62.2185 195.59 62.0479 195.609 61.9401C195.644 61.7344 195.687 61.5369 195.741 61.3474C195.089 60.6739 195.139 59.9552 195.109 59.0996L195.103 58.9412L195.126 58.7848C195.293 57.6804 195.616 56.6239 195.982 55.5769C195.077 54.726 195.085 53.7039 195.124 52.5524L195.127 52.4688L195.138 52.3858C195.26 51.4709 195.543 50.548 195.695 49.6364L195.35 48.9696C194.423 47.1803 194.639 45.2554 195.143 43.4027L195.008 43.2328C194.377 42.4318 193.964 41.4441 193.998 40.4092C193.997 39.35 193.961 38.3158 194.094 37.2694C193.742 37.0301 193.457 36.6802 193.311 36.2419C192.579 34.727 192.65 33.2114 192.725 31.5959C191.79 30.9056 191.496 29.9057 191.269 28.796L191.252 28.7144L191.243 28.6308C191.144 27.6781 191.21 26.685 191.108 25.7411L190.879 25.5328C189.339 24.1358 189.114 22.2885 188.797 20.3636C188.783 20.2868 188.771 20.2113 188.761 20.1371L188.516 19.9038C187.023 18.4826 186.589 16.549 186.437 14.583L186.343 14.5236C185.747 14.1441 185.254 13.6499 184.863 13.0599C184.003 11.7641 183.839 10.4427 183.502 9.03087C182.126 8.50364 181.431 7.27861 180.913 5.95581L180.89 5.8985L180.872 5.83984C180.68 5.2189 180.47 4.60672 180.289 3.98375L179.924 3.78553C179.145 3.36348 178.481 2.84703 178.073 2.03798C177.54 1.06308 177.222 0.0396299 176.805 -0.967638L176.702 -1.0027C176.13 -1.19552 175.623 -1.50566 175.183 -1.91962C174.551 -2.5136 174.138 -3.23972 173.755 -4.00832C173.568 -4.38453 173.384 -4.7931 173.16 -5.1511C173.067 -5.27515 172.983 -5.40528 172.911 -5.54079L172.855 -5.5563C171.056 -6.05454 170.113 -7.53847 169.342 -9.12893L169.33 -9.15253L169.32 -9.17613C169.249 -9.33524 169.144 -9.49907 169.054 -9.64942C168.979 -9.77482 168.908 -9.90023 168.842 -10.0256L168.632 -10.0877C168.008 -10.2717 167.569 -10.3627 167.066 -10.8185C166.75 -11.0916 166.463 -11.3949 166.198 -11.7186C165.556 -12.5006 165.057 -13.4567 164.415 -14.2172C163.204 -14.23 162.511 -14.9089 161.69 -15.7092L161.658 -15.7409L161.627 -15.7739C161.043 -16.4084 160.531 -17.1075 159.973 -17.7615L159.213 -18.0029C158.647 -18.1829 158.123 -18.4539 157.638 -18.7978C156.889 -19.3284 156.289 -19.9884 155.684 -20.6707C155.413 -20.9754 155.132 -21.2964 154.833 -21.5849L154.509 -21.6052C153.784 -21.651 153.264 -21.6598 152.655 -22.1007C152.362 -22.2814 152.085 -22.4863 151.821 -22.7068C151.318 -23.1248 150.831 -23.6682 150.325 -24.1328L148.873 -24.5724C148.313 -24.7423 147.789 -24.9924 147.292 -25.3032C146.307 -25.9208 145.529 -26.7602 144.649 -27.4452L143.97 -27.4492C143.336 -27.4532 142.726 -27.5888 142.143 -27.8382C141.312 -28.1935 140.639 -28.7329 139.946 -29.2986C139.661 -29.5305 139.349 -29.7907 139.027 -29.9977L138.577 -29.9532C137.993 -29.8952 137.42 -29.9633 136.862 -30.1413C135.714 -30.5067 135.051 -31.1762 134.054 -31.6927L133.995 -31.7237L133.938 -31.7587C133.839 -31.8208 133.719 -31.8747 133.615 -31.9286C133.599 -31.9374 133.583 -31.9455 133.567 -31.9536L132.733 -31.9495C132.099 -31.9468 131.479 -32.052 130.876 -32.2435C129.59 -32.6521 128.621 -33.3728 127.504 -33.983L126.777 -33.9054C125.07 -33.7241 123.554 -34.281 122.116 -35.0691L121.013 -34.9194C120.381 -34.8331 119.75 -34.8675 119.127 -34.9976C118.286 -35.1736 117.524 -35.51 116.743 -35.8586C116.488 -35.9725 116.226 -36.0919 115.959 -36.1977L114.995 -36.0245C114.356 -35.9098 113.716 -35.9092 113.074 -35.9928C112.3 -36.0939 111.567 -36.3123 110.82 -36.5301C110.366 -36.6623 109.894 -36.7984 109.423 -36.8652C108.065 -35.8647 106.536 -36.1944 105.032 -36.6886L104.992 -36.7014L104.952 -36.7169C104.757 -36.7924 104.547 -36.8456 104.345 -36.8982C104.129 -36.9549 103.919 -37.0108 103.713 -37.0742C102.541 -36.1 101.064 -36.0865 99.6911 -36.4222C98.9882 -36.5787 98.2699 -36.7526 97.5503 -36.8443L97.2306 -36.6326C95.9111 -35.7581 94.5849 -35.8761 93.1042 -35.9645L93.0059 -35.9705L92.9089 -35.9881C92.428 -36.075 91.9813 -36.1411 91.5539 -36.249C91.2436 -35.8566 90.8356 -35.6799 90.3434 -35.4635L90.2157 -35.3995L90.0632 -35.3563C88.6306 -34.9545 87.1573 -35.0078 85.7087 -35.2397L85.1676 -34.8459C84.0661 -34.045 82.7199 -33.7739 81.3863 -33.7686C80.856 -33.7665 80.3463 -33.8232 79.8521 -33.9256C79.62 -33.4604 79.2575 -33.091 78.7158 -32.8813C77.1448 -32.1437 75.7324 -32.2779 74.138 -32.2152L73.8377 -31.9017C72.4473 -30.4488 70.6502 -30.117 68.7863 -29.9262L68.1449 -29.3795C66.6448 -28.1012 64.809 -27.6717 62.923 -27.4694L62.9009 -27.1128L62.4321 -26.659C61.0484 -25.3174 59.446 -25.0241 57.7292 -24.656L57.463 -24.2346C56.2679 -22.3421 54.4782 -21.9975 52.5521 -21.3085C52.4859 -21.2829 52.4197 -21.2586 52.3528 -21.237C52.2518 -20.6923 52.0338 -20.2149 51.5843 -19.8226C51.2412 -19.4868 50.856 -19.205 50.4394 -18.967C49.8247 -18.615 49.178 -18.3811 48.5159 -18.1411C48.2237 -18.0352 47.9174 -17.9253 47.6278 -17.7932L47.5743 -17.6314C47.0065 -15.9081 45.6381 -15.2885 44.1822 -14.5233L44.0939 -14.4774L44.0009 -14.4417C43.8431 -14.3817 43.6739 -14.2799 43.5261 -14.1976C43.3087 -14.0763 43.0954 -13.965 42.882 -13.87C42.761 -13.1115 42.3718 -12.4413 41.8474 -11.877L41.8233 -11.8507L41.7979 -11.8258C40.8576 -10.8974 39.7655 -10.3499 38.6192 -9.7701L38.6051 -9.69257C38.2794 -7.88772 36.9813 -7.01731 35.5768 -6.10376L35.5488 -6.08556L35.52 -6.0687C35.2491 -5.90757 34.9903 -5.70125 34.7308 -5.49292L34.4633 -4.7277C34.2533 -4.12631 33.9356 -3.58559 33.5323 -3.09611C33.0094 -2.46101 32.3894 -1.96951 31.75 -1.46386C31.4631 -1.23732 31.1568 -0.997977 30.888 -0.73571L30.6559 0.00659456C30.054 1.93079 28.7351 2.7695 27.4437 4.11859C27.3447 4.23658 27.237 4.3458 27.1227 4.44626C27.1922 5.0281 27.1528 5.55668 26.8411 6.09807C26.1355 7.41884 25.137 8.26969 24.2743 9.41922L24.2027 10.0348C24.0415 11.4162 23.2591 12.3567 22.4211 13.3795L22.3836 13.4254L22.3428 13.4685C21.9736 13.8589 21.6526 14.2971 21.3156 14.7239L21.3022 15.3496C21.2895 15.9604 21.1557 16.5476 20.9196 17.1092C20.606 17.8563 20.1458 18.4819 19.657 19.1184C19.4028 19.4494 19.1239 19.7987 18.9159 20.1634C18.8992 20.1985 18.8825 20.2328 18.8651 20.2659L18.843 21.0035C18.7855 22.9283 17.8506 24.2242 16.844 25.6177L16.8487 26.7235C16.852 27.5548 16.8781 28.2141 16.4876 28.9841C16.0241 29.9765 15.4302 30.888 14.9092 31.8407L14.9948 32.5486C15.2115 34.3454 14.5186 35.8037 13.7442 37.3395L13.9214 38.4972C14.0137 39.0999 13.989 39.6999 13.8666 40.2959C13.7 41.1097 13.371 41.8284 13.0366 42.5802C12.8988 42.8889 12.7437 43.2335 12.64 43.5787L12.8192 44.5515C12.9316 45.1604 12.943 45.7739 12.8781 46.3888C12.741 47.6859 12.2648 48.7964 12.0194 50.0383C12.0194 50.0396 12.0187 50.0416 12.0187 50.043L12.1491 50.3032C12.4501 50.9039 12.6046 51.5471 12.6186 52.2193C12.6393 53.1693 12.3812 54.0572 12.0776 54.9445C12.004 55.1595 11.9244 55.3793 11.8502 55.6018L12.1993 56.3758C12.4641 56.9637 12.5965 57.5833 12.6146 58.2272C12.6373 59.0362 12.4788 59.7974 12.3036 60.5795C12.2341 60.891 12.1565 61.2173 12.1103 61.5402L12.4989 62.6871C13.06 64.3436 13.1309 66.168 12.6895 67.8609L12.9537 68.3653C13.807 69.9948 13.8552 71.7977 13.6766 73.589L13.6579 73.7792L13.597 73.9598C13.589 73.9834 13.581 74.0077 13.573 74.0313L13.6646 74.1453C14.9493 75.7445 15.2677 77.9067 14.9119 79.8915C15.4349 80.2199 15.8261 80.766 16.0963 81.3903C16.2682 81.7867 16.3846 82.2007 16.4581 82.6268C16.6247 83.5956 16.5203 84.4856 16.5972 85.4315C16.614 85.5576 16.6247 85.6836 16.628 85.8104C17.2493 86.1576 17.6365 86.7415 17.9582 87.4251L17.9743 87.4602C18.5307 88.7176 18.5608 89.8847 18.8464 91.1798C18.8751 91.283 18.8972 91.3881 18.9119 91.494L19.3393 91.6194L19.673 92.0644C20.7611 93.5146 21.0059 95.1246 21.246 96.8324L21.4199 96.947C23.3694 98.2334 23.5493 100.164 24.089 102.192C24.1205 102.285 24.1479 102.376 24.1706 102.465C25.7991 103.036 26.3562 104.497 26.8679 106.025L26.8979 106.114L26.9173 106.207C26.924 106.237 26.9314 106.267 26.9394 106.298C27.0558 106.74 27.219 107.125 27.3554 107.535C28.4616 107.846 29.1558 108.686 29.7336 109.661L29.7644 109.712L29.7918 109.767C30.1737 110.532 30.4325 111.426 30.8104 112.195L31.3842 112.535C31.94 112.865 32.4228 113.286 32.8415 113.781C33.7444 114.845 34.163 116.003 34.7823 117.173L34.9087 117.21C35.536 117.394 36.0992 117.709 36.5934 118.137C37.6882 119.086 38.1209 120.217 38.8171 121.405C38.87 121.48 38.9195 121.557 38.9649 121.636C39.2793 121.663 39.5869 121.743 39.8785 121.871C40.7412 122.249 41.1439 122.829 41.7357 123.485L41.8113 123.568L41.8748 123.662C42.3096 124.298 42.761 124.923 43.2191 125.542L43.7842 125.718C44.3721 125.902 44.9038 126.195 45.3867 126.578C46.0227 127.084 46.5082 127.695 47.0071 128.329C47.2151 128.594 47.4405 128.886 47.6853 129.14L48.6109 129.477C49.1968 129.691 49.7318 129.999 50.2247 130.38C51.0854 131.046 51.692 131.86 52.3849 132.609L53.6469 133.023C54.2087 133.208 54.733 133.473 55.2279 133.796C56.0766 134.349 56.7675 135.055 57.5199 135.683L58.7692 136.042C59.3336 136.203 59.8606 136.452 60.3582 136.764C61.0243 137.182 61.5988 137.693 62.188 138.211C62.3759 138.376 62.5706 138.547 62.7712 138.709L64.0887 138.926C64.6906 139.024 65.2584 139.226 65.8001 139.505C66.4796 139.856 67.0729 140.307 67.6808 140.767C68.0687 141.06 68.4813 141.376 68.918 141.597L69.2879 141.587C70.1319 141.564 70.8114 141.54 71.5899 141.973C72.5663 142.517 73.5173 143.109 74.5045 143.631C74.5212 143.638 74.5372 143.646 74.5533 143.653C75.1211 143.451 75.7263 143.446 76.3035 143.634C77.7942 144.032 78.9071 144.832 80.2607 145.462L80.9469 145.376C83.0275 145.114 84.3872 146.044 86.0545 146.87L86.3648 146.735C87.7967 146.114 89.066 146.608 90.3896 147.183L90.4484 147.209L90.5053 147.239C90.8189 147.405 91.1533 147.538 91.4957 147.649L92.8781 147.475C94.8049 147.231 96.2876 147.896 98.0853 148.38C98.1241 148.389 98.1622 148.399 98.2004 148.409L98.3147 148.34C99.9365 147.354 101.629 147.797 103.285 148.371L103.337 148.388L103.387 148.41C103.488 148.455 103.608 148.487 103.721 148.514Z" fill="#949494"/>
<path d="M179.71 -12.4624C180.527 -12.31 181.094 -11.6028 181.602 -10.992C182.274 -10.0393 182.977 -9.01383 183.197 -7.85554C182.542 -4.89913 181.742 -1.97509 181.112 0.98671C181.018 1.43641 180.939 1.89689 180.717 2.30479C180.251 2.05263 179.792 1.74654 179.553 1.25504C178.964 0.187771 178.637 -0.997488 178.138 -2.10454C178.405 -5.58952 179.319 -8.99158 179.71 -12.4624Z" fill="#C5C5C5"/>
<path d="M182.848 -2.28212C183.303 -3.96967 183.591 -5.7044 184.138 -7.36768C185.812 -6.40625 186.53 -4.50364 187.121 -2.76283C186.37 0.716758 184.999 4.02577 184.184 7.49053C183.25 7.1804 182.802 6.19268 182.468 5.33981C182.207 4.4957 181.908 3.66305 181.706 2.80545C182.015 1.09499 182.463 -0.587835 182.848 -2.28212Z" fill="#C5C5C5"/>
<path d="M187.857 -1.84619C188.373 -1.78214 188.674 -1.31963 188.995 -0.955561C189.731 -0.0696508 190.204 1.00234 190.556 2.09456C190.689 2.52673 190.802 2.99193 190.698 3.44365C189.505 6.64681 187.997 9.75424 187.238 13.103C185.568 12.0398 185.465 9.85604 184.995 8.11524C185.79 4.74757 187.117 1.53362 187.857 -1.84619Z" fill="#C5C5C5"/>
<path d="M22.0191 0.0761937C24.3786 0.0411348 26.71 -0.353278 29.0635 -0.497559C28.5933 1.0066 27.229 1.91206 26.1964 2.99956C25.7195 3.60433 24.9043 3.5868 24.2214 3.74591C21.2908 4.3264 18.3174 4.63856 15.3713 5.11253C15.6368 3.14789 17.0192 1.47787 18.6778 0.502969C19.7693 0.21643 20.9163 0.306773 22.0191 0.0761937Z" fill="#C5C5C5"/>
<path d="M191.551 3.875C192.203 4.11906 192.579 4.75012 192.915 5.3259C193.486 6.40261 193.715 7.61618 194.119 8.75897C194.319 9.15068 193.98 9.49655 193.82 9.82691C192.243 12.6822 190.836 15.6339 189.665 18.682C188.371 17.4502 188.152 15.5455 188.066 13.8533C188.729 10.371 190.346 7.18199 191.551 3.875Z" fill="#C5C5C5"/>
<path d="M15.0717 6.21871C18.4992 5.48518 22.0324 5.30853 25.4379 4.4624C25.482 4.73006 25.5369 5.02469 25.3851 5.2755C24.739 6.50256 23.669 7.41274 22.8584 8.52046C22.6343 8.86363 22.1749 8.84611 21.8238 8.9587C18.6229 9.61673 15.4716 10.6287 12.2092 10.9281C12.4707 9.04904 13.6725 7.41678 15.0717 6.21871Z" fill="#C5C5C5"/>
<path d="M21.4874 10.0103C21.8365 9.93679 22.1816 9.81274 22.5441 9.83971C22.4317 10.8011 21.7288 11.5832 21.1336 12.3093C20.5605 12.9161 20.1057 13.6274 19.5386 14.2362C17.2513 15.0601 14.8985 15.6939 12.5758 16.4112C11.5124 16.6418 10.4838 17.1555 9.37695 17.0868C9.63845 15.5718 10.4249 14.245 11.3017 13.0159C11.6228 12.6397 11.7612 11.9439 12.3497 11.9372C15.4409 11.532 18.4538 10.7034 21.4874 10.0103Z" fill="#C5C5C5"/>
<path d="M194.569 10.4051C194.665 10.1658 194.859 10.0019 195.068 9.86035C196.456 11.291 196.501 13.3885 197.044 15.2008C194.965 17.9805 193.381 21.1055 191.999 24.2844C190.835 23.2279 190.685 21.5309 190.443 20.0645C190.305 19.3782 190.661 18.7646 190.913 18.1619C191.927 15.4812 193.232 12.93 194.569 10.4051Z" fill="#C5C5C5"/>
<path d="M15.6871 16.4995C17.0013 16.0984 18.2861 15.5941 19.633 15.3149C19.5982 16.9782 18.1677 18.0502 17.4247 19.404C17.2247 19.878 16.7438 20.0755 16.2977 20.2367C13.2548 21.3619 10.2204 22.5162 7.13599 23.5194C7.17344 21.6788 8.13583 20.0438 9.1243 18.5579C9.29551 18.2875 9.63191 18.2215 9.91281 18.1345C11.8536 17.643 13.765 17.0537 15.6871 16.4995Z" fill="#C5C5C5"/>
<path d="M197.665 15.8975C198.977 17.3133 199.221 19.3393 199.404 21.1799C197.468 24.172 195.396 27.0981 193.801 30.2986C193.186 29.9021 193.043 29.1207 192.907 28.4559C192.793 27.357 192.89 26.2479 192.718 25.1516C193.965 21.8736 195.695 18.7878 197.665 15.8975Z" fill="#C5C5C5"/>
<path d="M16.5089 21.1577C16.7283 21.0782 16.9503 21.0114 17.175 20.9541C17.1202 22.7879 15.7712 24.1809 14.7995 25.6122C12.2133 26.968 9.55949 28.2322 6.83752 29.3001C6.38274 29.5017 5.91927 29.6898 5.42436 29.7606C5.33876 27.9315 6.06172 26.126 7.04618 24.6353C10.1788 23.4284 13.393 22.4232 16.5089 21.1577Z" fill="#C5C5C5"/>
<path d="M198.592 24.1437C199.1 23.4547 199.491 22.6773 200.08 22.0503C201.275 23.6913 201.385 25.7915 201.215 27.7447C199.458 30.5527 197.225 33.023 195.432 35.8095C195.289 36.1177 194.914 35.8958 194.881 35.6369C194.166 34.2818 194.354 32.6893 194.415 31.2162C195.6 28.7418 197.098 26.436 198.592 24.1437Z" fill="#C5C5C5"/>
<path d="M12.8747 27.6566C13.6498 27.364 14.3247 26.7727 15.1794 26.7329C15.1814 27.2379 15.2342 27.7759 14.9901 28.2411C14.419 29.4749 13.6325 30.5914 13.0412 31.8158C9.91465 33.2242 7.05825 35.1895 3.86143 36.4476C3.66347 34.454 4.51216 32.5203 5.49194 30.8523C7.99723 29.9003 10.4865 28.8863 12.8747 27.6566Z" fill="#C5C5C5"/>
<path d="M201.868 28.5586C202.31 28.6334 202.435 29.2186 202.654 29.5598C203.182 31.039 202.96 32.6497 203.037 34.1916C200.958 36.5345 198.833 38.8477 196.988 41.3874C196.777 41.6645 196.597 41.9747 196.318 42.187C195.927 41.6908 195.641 41.0888 195.67 40.4415C195.67 39.3271 195.615 38.191 195.813 37.0947C196.54 35.6769 197.562 34.4411 198.495 33.1587C199.656 31.6525 200.772 30.1133 201.868 28.5586Z" fill="#C5C5C5"/>
<path d="M3.89285 37.471C7.19735 36.2285 10.126 34.1863 13.3382 32.7529C13.5114 34.1903 12.8045 35.4949 12.1805 36.7287C11.9585 37.1366 11.7919 37.6234 11.3699 37.8695C8.58642 39.7303 5.78486 41.5945 2.78801 43.0879C2.62482 41.1455 3.19865 39.2563 3.89285 37.471Z" fill="#C5C5C5"/>
<path d="M203.433 35.1562C203.918 35.3889 204.019 35.9666 204.175 36.4345C204.509 37.7128 204.368 39.0525 204.258 40.3524C204.223 40.7886 203.79 41.0124 203.534 41.3138C201.2 43.5063 199.352 46.2045 196.832 48.1914C196.013 46.6097 196.468 44.7293 196.969 43.1214C198.825 40.2378 201.209 37.7499 203.433 35.1562Z" fill="#C5C5C5"/>
<path d="M11.7833 38.7222C11.9064 38.7309 12.1498 38.7464 12.2729 38.7559C12.5544 40.5897 11.1192 42.0541 10.8845 43.8104C8.27217 45.7016 5.63312 47.5577 2.95729 49.3585C2.70916 49.5398 2.42092 49.6511 2.12865 49.7374C2.03435 47.9319 2.36139 46.1337 2.91983 44.426C3.01881 44.1731 3.2228 43.985 3.45152 43.8569C6.32532 42.313 9.10682 40.5897 11.7833 38.7222Z" fill="#C5C5C5"/>
<path d="M197.452 49.0265C200.045 46.7382 202.121 43.9409 204.632 41.5684C204.875 41.9607 205.121 42.3767 205.175 42.8487C205.31 44.3481 205.288 45.8786 204.877 47.3382C202.619 49.5732 200.169 51.5999 197.932 53.8545C197.694 54.0453 197.504 54.4127 197.163 54.3817C196.67 53.9502 196.776 53.1991 196.796 52.6099C196.955 51.4057 197.369 50.2447 197.452 49.0265Z" fill="#C5C5C5"/>
<path d="M2.9679 50.4704C5.77348 48.7074 8.40182 46.6672 11.1786 44.8604C11.491 46.5546 10.6891 48.1316 10.3748 49.7558C10.3092 50.2763 9.78354 50.4846 9.42775 50.7812C6.93182 52.5841 4.70141 54.7638 2.0871 56.3893C1.43035 54.6883 1.80153 52.7965 2.35061 51.1177C2.41615 50.7941 2.71777 50.6322 2.9679 50.4704Z" fill="#C5C5C5"/>
<path d="M204.663 48.8713C204.856 48.6522 205.104 48.4971 205.39 48.4243C206.315 50.2804 205.465 52.3206 205.137 54.2137C202.501 56.2209 199.917 58.2981 197.287 60.3113C196.67 60.3396 196.795 59.4544 196.779 59.0377C196.971 57.7688 197.412 56.5283 197.849 55.3275C199.965 53.0197 202.418 51.051 204.663 48.8713Z" fill="#C5C5C5"/>
<path d="M2.91973 57.0514C5.59823 55.1866 8.00187 52.9536 10.6603 51.0645C11.4823 52.7035 10.3393 54.4092 10.0009 56.0239C7.81461 58.5313 5.13877 60.562 2.79868 62.9231C2.64954 63.1759 2.37934 63.1382 2.12855 63.1112C1.8102 61.452 2.08039 59.7624 2.37065 58.1234C2.45358 57.725 2.5218 57.2577 2.91973 57.0514Z" fill="#C5C5C5"/>
<path d="M203.919 56.3605C204.473 55.9621 204.958 55.3991 205.659 55.271C206.311 57.0185 205.885 58.9346 205.327 60.6485C202.706 62.3252 200.197 64.1658 197.661 65.9687C197.323 66.2276 196.969 66.4757 196.556 66.593C196.426 65.3349 196.693 64.0991 197.096 62.9185C197.327 62.3077 197.211 61.4636 197.837 61.078C199.893 59.5455 201.879 57.9179 203.919 56.3605Z" fill="#C5C5C5"/>
<path d="M9.61454 57.8201C9.92888 57.5167 10.1991 57.0865 10.6799 57.0737C11.3701 58.6042 10.5221 60.1791 10.4117 61.7318C10.3877 62.3744 9.78575 62.7061 9.39251 63.1207C7.25037 65.1851 5.38511 67.5172 3.27776 69.6174C3.17878 69.5931 2.98081 69.5486 2.8825 69.5243C2.096 67.8523 2.3682 65.9362 2.86043 64.2284C4.98718 61.9685 7.46572 60.0638 9.61454 57.8201Z" fill="#C5C5C5"/>
<path d="M196.839 67.7538C199.614 65.7204 202.419 63.716 205.282 61.8066C205.344 61.8242 205.465 61.8599 205.526 61.8754C205.867 63.7801 205.13 65.6456 204.643 67.4572C201.508 69.1562 198.491 71.0649 195.492 72.9924C195.033 71.0649 196.659 69.5877 196.839 67.7538Z" fill="#C5C5C5"/>
<path d="M10.4057 63.4835C10.5615 63.373 10.7327 63.2887 10.92 63.2334C11.441 64.7706 11.443 66.4959 10.8932 68.0243C8.96845 71.0104 6.4946 73.5771 4.21202 76.2814C3.08711 74.7954 3.30246 72.7795 3.49574 71.0367C3.5225 70.4272 4.1418 70.1265 4.50896 69.7274C6.50329 67.6744 8.3204 65.4482 10.4057 63.4835Z" fill="#C5C5C5"/>
<path d="M203.213 69.3642C203.771 69.0608 204.297 68.6529 204.942 68.5693C205.23 70.3587 204.458 72.0064 204.01 73.6879C201.991 74.6514 199.957 75.604 198.019 76.7401C196.811 77.3313 195.683 78.1202 194.39 78.5099C194.324 77.2545 194.871 76.0955 195.394 74.9905C195.647 74.4747 195.897 73.9077 196.403 73.5881C198.612 72.082 200.892 70.6864 203.213 69.3642Z" fill="#C5C5C5"/>
<path d="M10.4163 70.3426C10.7353 69.9152 11.0029 69.4257 11.4777 69.1533C12.1632 70.462 12.1585 71.9884 12.0161 73.4238C10.8076 77.0274 7.84149 79.5725 5.91002 82.746C5.10145 82.3516 4.91018 81.3484 4.80919 80.5353C4.75235 79.4856 4.78043 78.4331 4.6333 77.3922C4.8861 76.6836 5.52747 76.2224 5.99964 75.6669C7.52047 73.9335 9.03862 72.1947 10.4163 70.3426Z" fill="#C5C5C5"/>
<path d="M195.051 79.3711C198.023 77.9203 200.84 76.1707 203.854 74.8081C204.137 76.6972 203.289 78.4697 202.505 80.1236C202.276 80.7175 201.58 80.6973 201.086 80.9144C198.168 82.0019 195.408 83.4683 192.565 84.7304C192.482 83.2357 193.488 82.0329 194.105 80.7661C194.391 80.2881 194.501 79.626 195.051 79.3711Z" fill="#C5C5C5"/>
<path d="M11.4576 76.722C11.7545 76.2129 11.9959 75.6682 12.3671 75.207C13.3489 76.4294 13.5402 78.1196 13.2633 79.6258C12.226 83.0481 9.93472 85.8541 8.04539 88.82C7.91765 88.975 7.7665 89.1079 7.59262 89.2191C6.62822 87.8194 6.2129 86.0807 6.34064 84.3884C6.36472 83.9805 6.48309 83.582 6.70312 83.2409C8.13768 80.9573 10.0471 79.021 11.4576 76.722Z" fill="#C5C5C5"/>
<path d="M13.6419 81.2603C14.1408 81.1869 14.3936 81.6743 14.5668 82.0667C15.0504 83.192 14.835 84.4392 14.938 85.6265C15.0985 86.6675 14.3401 87.4934 14.0265 88.4238C12.9056 90.7579 11.7572 93.1102 10.219 95.1989C10.0458 95.5158 9.78432 95.1882 9.65858 95.0243C8.67212 93.8263 8.54705 92.2088 8.35578 90.7269C8.18858 90.0183 8.75772 89.4951 9.08543 88.9463C10.7106 86.4571 12.6093 84.0806 13.6419 81.2603Z" fill="#C5C5C5"/>
<path d="M192.662 85.7457C195.863 84.3043 198.986 82.6693 202.299 81.4976C202.466 83.3247 201.686 85.0857 200.787 86.6229C199.274 87.3558 197.613 87.7434 196.064 88.4015C194.173 89.015 192.359 89.8706 190.448 90.4039C190.681 88.6341 192.107 87.3895 192.662 85.7457Z" fill="#C5C5C5"/>
<path d="M15.606 87.2026C16.0541 87.3159 16.2675 87.7609 16.4494 88.1486C16.9329 89.2408 16.9704 90.4543 17.2292 91.6059C17.3763 92.0617 17.0647 92.481 16.9349 92.9017C15.808 95.8919 14.3735 98.7512 12.8373 101.544C11.1325 100.346 11.3806 97.9853 10.6931 96.2242C12.6948 93.4377 14.2237 90.3397 15.606 87.2026Z" fill="#C5C5C5"/>
<path d="M190.766 91.3654C194.073 90.2246 197.3 88.827 200.654 87.8325C200.493 89.7594 199.483 91.5069 198.371 93.0246C195.572 93.9408 192.698 94.6144 189.899 95.5407C189.269 95.6978 188.653 96.0815 187.988 95.9331C188.439 94.1451 189.924 92.9464 190.766 91.3654Z" fill="#C5C5C5"/>
<path d="M17.9195 92.9619C18.0252 92.9909 18.2358 93.0502 18.3415 93.0813C19.3106 94.3724 19.4443 96.0424 19.6664 97.591C18.9809 101.064 17.3136 104.227 16.1753 107.554C15.0109 107.138 14.613 105.811 14.2793 104.736C14.0833 103.89 13.7516 103.082 13.5784 102.236C15.1774 99.2213 16.7531 96.1806 17.9195 92.9619Z" fill="#C5C5C5"/>
<path d="M195.365 94.9116C196.375 94.6918 197.34 94.2778 198.37 94.145C198.126 95.9506 197.059 97.4406 196.081 98.9157C195.929 99.1038 195.804 99.3985 195.529 99.4207C192.042 99.7619 188.712 100.947 185.269 101.536C185.699 99.7571 187.33 98.6737 188.171 97.1169C190.538 96.2802 192.965 95.6397 195.365 94.9116Z" fill="#C5C5C5"/>
<path d="M20.5058 98.3574C21.9423 99.3054 22.0835 101.17 22.4941 102.694C22.767 103.443 22.4921 104.216 22.2921 104.944C21.5692 107.762 20.4643 110.468 19.8357 113.313C18.5523 112.416 17.7223 111.005 17.2234 109.541C17.0127 108.947 16.8963 108.276 17.1157 107.669C18.3041 104.588 19.6598 101.563 20.5058 98.3574Z" fill="#C5C5C5"/>
<path d="M185.165 102.612C188.611 101.857 192.014 100.876 195.509 100.353C195.327 102.3 194.055 103.981 192.673 105.261C191.322 105.501 189.912 105.591 188.549 105.839C186.428 106.14 184.335 106.603 182.212 106.869C182.36 105.824 183.168 105.064 183.807 104.288C184.311 103.773 184.706 103.164 185.165 102.612Z" fill="#C5C5C5"/>
<path d="M23.5092 104.021C24.6187 104.345 24.9591 105.59 25.2868 106.567C25.4407 107.282 25.8205 107.937 25.9175 108.66C25.43 111.952 24.4348 115.143 23.7245 118.388C23.7071 118.754 23.2744 118.57 23.1333 118.406C21.8018 117.405 21.0614 115.801 20.6548 114.22C21.2614 110.737 22.7642 107.477 23.5092 104.021Z" fill="#C5C5C5"/>
<path d="M182.622 107.844C185.865 107.242 189.114 106.615 192.406 106.339C192.127 108.401 190.439 109.794 189.062 111.17C185.595 111.065 182.172 111.637 178.729 111.938C179.135 110.664 180.243 109.838 181.165 108.954C181.62 108.548 181.938 107.871 182.622 107.844Z" fill="#C5C5C5"/>
<path d="M26.8023 109.133C27.5146 109.282 27.9513 109.937 28.3011 110.526C28.7906 111.507 29.0588 112.593 29.6366 113.532C29.2548 117.005 28.4502 120.423 28.0503 123.889C27.5293 123.865 27.136 123.49 26.7715 123.155C25.7811 122.172 25.0601 120.936 24.592 119.62C24.4381 119.18 24.6648 118.732 24.7371 118.303C25.3918 115.238 26.3261 112.236 26.8023 109.133Z" fill="#C5C5C5"/>
<path d="M178.436 113.025C181.839 112.507 185.278 112.132 188.727 112.146C188.589 114.166 186.794 115.503 185.354 116.679C183.083 116.407 180.765 116.538 178.473 116.56C177.316 116.73 176.145 116.732 174.978 116.757C175.085 115.955 175.716 115.379 176.302 114.891C177.047 114.31 177.776 113.707 178.436 113.025Z" fill="#C5C5C5"/>
<path d="M30.5376 113.988C32.1394 114.938 32.6597 116.843 33.5344 118.376C33.1191 121.827 33.0422 125.32 32.4557 128.755C31.6424 128.35 30.8452 127.845 30.349 127.056C29.826 126.257 29.2395 125.475 28.8877 124.585C29.301 121.036 30.1751 117.547 30.5376 113.988Z" fill="#C5C5C5"/>
<path d="M173.633 118.609C174.14 118.3 174.525 117.656 175.175 117.68C178.464 117.584 181.766 117.432 185.053 117.642C184.52 119.572 182.672 120.558 181.338 121.86C179.071 121.716 176.805 121.481 174.529 121.532C173.314 121.425 172.097 121.433 170.882 121.363C170.889 121.26 170.907 121.049 170.913 120.945C171.656 119.986 172.631 119.267 173.633 118.609Z" fill="#C5C5C5"/>
<path d="M34.442 118.828C36.0484 119.3 36.6457 121.025 37.4235 122.336C37.9772 123.065 37.6428 123.999 37.6081 124.828C37.5572 126.824 37.584 128.824 37.4763 130.819C37.3579 131.612 37.2897 132.412 37.2897 133.215C36.4638 133.049 35.8505 132.429 35.2793 131.851C34.5015 131.023 33.8949 130.046 33.3525 129.051C33.6227 128.418 33.5699 127.716 33.6976 127.054C34.0247 124.318 34.1718 121.568 34.442 118.828Z" fill="#C5C5C5"/>
<path d="M169.847 122.762C170.282 122.547 170.715 122.252 171.225 122.31C174.314 122.624 177.445 122.425 180.528 122.813C180.607 122.856 180.765 122.941 180.844 122.986C179.987 124.611 178.467 125.725 176.92 126.629C176.562 126.742 176.187 126.601 175.828 126.581C173.789 126.279 171.737 126.103 169.683 125.976C168.652 125.794 167.609 125.783 166.569 125.752C166.556 125.668 166.53 125.497 166.517 125.413C167.261 124.135 168.587 123.422 169.847 122.762Z" fill="#C5C5C5"/>
<path d="M38.6252 123.313C39.4753 123.256 39.9942 124.058 40.5012 124.62C41.0657 125.446 41.6569 126.252 42.2568 127.055C42.4327 128.808 42.2788 130.59 42.5357 132.339C42.5838 134.056 42.5731 135.775 42.3905 137.483C40.4263 137.017 39.4378 135.05 38.1504 133.675C38.4273 131.996 38.335 130.288 38.5523 128.605C38.5925 126.842 38.6299 125.077 38.6252 123.313Z" fill="#C5C5C5"/>
<path d="M164.643 127.304C165.275 127.023 165.886 126.518 166.622 126.647C169.182 126.904 171.751 127.048 174.305 127.345C174.993 127.358 175.664 127.52 176.329 127.695C175.617 129.531 173.767 130.483 172.132 131.343C168.701 130.663 165.238 130.094 161.78 129.569C162.406 128.467 163.579 127.887 164.643 127.304Z" fill="#C5C5C5"/>
<path d="M43.292 127.329C44.988 127.858 45.6562 129.695 46.9543 130.747C47.4265 134.267 47.8204 137.81 47.8291 141.363C45.8929 140.993 44.5353 139.401 43.3863 137.912C43.6043 134.383 43.4064 130.855 43.292 127.329Z" fill="#C5C5C5"/>
<path d="M160.738 130.86C161.008 130.753 161.252 130.539 161.557 130.548C164.919 130.958 168.243 131.63 171.58 132.198C170.85 133.722 169.383 134.721 167.9 135.412C167.498 135.633 167.028 135.678 166.584 135.605C163.385 134.874 160.232 133.942 157.013 133.303C157.013 133.008 157.109 132.723 157.354 132.543C158.313 131.682 159.609 131.411 160.738 130.86Z" fill="#C5C5C5"/>
<path d="M48.0444 131.063C49.7579 131.688 50.6547 133.39 51.9595 134.545C52.621 137.987 53.2182 141.447 53.6208 144.929C51.5382 144.725 50.1404 142.958 48.7607 141.562C48.8945 138.043 48.33 134.55 48.0444 131.063Z" fill="#C5C5C5"/>
<path d="M156.096 134.335C156.72 134.012 157.394 134.377 158.024 134.498C160.797 135.121 163.528 135.918 166.312 136.492C166.303 136.594 166.29 136.8 166.281 136.902C165.321 138.3 163.761 139.084 162.184 139.551C161.819 139.633 161.448 139.554 161.099 139.458C157.935 138.59 154.852 137.454 151.693 136.585C152.707 135.104 154.619 135.061 156.096 134.335Z" fill="#C5C5C5"/>
<path d="M53.1065 135.475C53.0496 135.189 53.0583 134.906 53.1306 134.627C54.7958 135.174 55.8706 136.636 57.2697 137.608C57.9726 141.108 58.9838 144.55 59.4426 148.096C57.56 147.903 55.9843 146.628 54.6795 145.337C54.5497 144.789 54.4641 144.234 54.4247 143.675C54.1063 140.924 53.6342 138.193 53.1065 135.475Z" fill="#C5C5C5"/>
<path d="M149.693 137.925C150.355 137.789 151.013 137.432 151.702 137.62C154.883 138.409 157.933 139.658 161.112 140.464C160.031 141.977 158.258 142.795 156.515 143.261C156.054 143.409 155.608 143.192 155.185 143.037C152.19 141.921 149.313 140.439 146.181 139.737C146.94 138.548 148.422 138.238 149.693 137.925Z" fill="#C5C5C5"/>
<path d="M58.3137 137.664C60.0981 138.176 61.1614 139.841 62.7344 140.72C63.8593 144.067 64.6612 147.514 65.6744 150.893C63.664 150.805 62.0161 149.494 60.4585 148.348C59.9971 144.739 58.9558 141.239 58.3137 137.664Z" fill="#C5C5C5"/>
<path d="M63.8218 140.59C65.5887 140.88 66.7196 142.408 68.2686 143.153C69.4858 146.174 70.5491 149.253 71.6366 152.322C71.7596 152.641 71.8125 152.982 71.8673 153.323C69.9934 153.104 68.306 152.122 66.7859 151.055C66.3705 150.278 66.2609 149.381 66.0014 148.546C65.3312 146.204 64.7554 143.834 63.9709 141.528C63.8639 141.224 63.8532 140.902 63.8218 140.59Z" fill="#C5C5C5"/>
<path d="M140.703 142.141C142.082 140.938 144.005 140.75 145.745 140.623C149.097 141.385 152.217 142.927 155.395 144.209C154.498 145.667 152.697 145.955 151.207 146.453C150.759 146.544 150.262 146.896 149.822 146.61C147.506 145.266 145.101 144.08 142.644 143.018C141.994 142.732 141.28 142.573 140.703 142.141Z" fill="#C5C5C5"/>
<path d="M135.148 144.417C136.549 143.367 138.341 143.05 140.047 143.057C142.968 144.047 145.727 145.472 148.443 146.927C148.796 147.13 149.227 147.261 149.434 147.653C147.988 148.97 145.991 149.183 144.17 149.591C143.623 149.402 143.192 148.988 142.706 148.692C140.457 147.272 138.128 145.967 135.697 144.888C135.453 144.809 135.302 144.6 135.148 144.417Z" fill="#C5C5C5"/>
<path d="M69.3347 143.272C69.8203 143.258 70.3433 143.196 70.7847 143.449C71.7892 144.001 72.7623 144.614 73.7775 145.148C74.0851 145.281 74.1313 145.655 74.2804 145.926C75.5705 148.937 77.1081 151.864 78.0885 155C76.2714 155.075 74.5359 154.318 73.0218 153.379C71.8153 150.005 70.6817 146.594 69.3347 143.272Z" fill="#C5C5C5"/>
<path d="M75.0322 145.274C75.2917 145.16 75.5572 145.152 75.8281 145.25C77.2319 145.611 78.423 146.482 79.7325 147.071C80.1057 147.209 80.2575 147.594 80.42 147.929C81.7623 150.852 83.5111 153.575 84.731 156.558C82.738 156.759 80.8774 155.861 79.1613 154.961C77.9655 151.654 76.4668 148.477 75.0322 145.274Z" fill="#C5C5C5"/>
<path d="M130.367 145.702C131.661 145.4 133.004 145.542 134.313 145.332C137.448 146.606 140.408 148.322 143.238 150.184C143.421 150.521 142.981 150.674 142.783 150.857C141.393 151.752 139.674 151.927 138.066 152.003C135.061 150.34 132.572 147.743 129.286 146.585C129.277 146.005 129.928 145.853 130.367 145.702Z" fill="#C5C5C5"/>
<path d="M81.1555 147.049C82.9131 146.828 84.3784 147.968 85.8926 148.657C87.8896 151.479 89.6037 154.504 91.2516 157.546C89.3556 157.98 87.5077 157.138 85.7568 156.509C84.5021 153.461 82.782 150.646 81.3448 147.687C81.2612 147.478 81.197 147.266 81.1555 147.049Z" fill="#C5C5C5"/>
<path d="M123.25 147.886C124.848 146.673 127.032 146.894 128.844 147.417C131.947 148.569 134.376 150.925 137.178 152.613C136.943 153.116 136.365 153.26 135.908 153.484C134.597 154.086 133.107 154.026 131.709 153.898C129.051 152.445 126.977 150.132 124.367 148.604C123.979 148.387 123.562 148.207 123.25 147.886Z" fill="#C5C5C5"/>
<path d="M87.0263 148.285C87.9252 147.895 88.9003 148.371 89.7309 148.732C90.4954 149.137 91.326 149.377 92.1613 149.585C94.0159 152.449 96.0503 155.187 97.9002 158.052C97.43 158.558 96.6723 158.341 96.0657 158.345C94.7582 158.141 93.4247 157.84 92.2335 157.264C90.6559 154.517 89.127 151.727 87.3561 149.095C87.2524 148.825 86.7869 148.59 87.0263 148.285Z" fill="#C5C5C5"/>
<path d="M117.167 148.949C118.931 147.956 121.203 148.005 122.994 148.922C125.861 150.397 128.087 152.809 130.796 154.524C130.754 154.92 130.324 155.062 130.035 155.251C128.546 155.963 126.849 155.665 125.259 155.735C122.637 153.386 120.082 150.929 117.167 148.949Z" fill="#C5C5C5"/>
<path d="M93.0881 149.148C94.6812 148.947 96.1773 149.614 97.6847 150.017C98.0539 150.101 98.403 150.28 98.6384 150.597C100.42 152.737 102.031 155.016 103.707 157.244C103.975 157.59 104.292 157.92 104.419 158.356C103.729 158.606 103.013 158.91 102.264 158.799C101.207 158.647 100.168 158.376 99.1547 158.051C98.6431 157.601 98.3395 156.972 97.9596 156.418C96.4655 154.157 94.8879 151.953 93.3657 149.714C93.2533 149.532 93.1717 149.337 93.0881 149.148Z" fill="#C5C5C5"/>
<path d="M111.375 149.525C112.961 148.761 114.879 149.088 116.492 149.627C119.328 151.567 121.846 153.942 124.39 156.249C122.956 157.164 121.198 157.184 119.566 157C119.109 156.938 118.656 156.772 118.362 156.398C116.125 154.013 113.533 151.988 111.375 149.525Z" fill="#C5C5C5"/>
<path d="M99.179 149.784C100.28 149.115 101.627 149.578 102.745 149.965C103.369 150.229 104.142 150.218 104.628 150.751C106.768 152.883 108.686 155.221 110.769 157.405C110.934 157.607 111.072 157.83 111.182 158.074C109.648 158.818 107.873 158.373 106.293 158.007C105.904 157.887 105.403 157.932 105.15 157.558C103.145 154.978 101.316 152.258 99.179 149.784Z" fill="#C5C5C5"/>
<path d="M105.065 149.746C106.873 148.916 108.719 150.07 110.566 150.025C112.24 151.906 114.086 153.627 115.947 155.317C116.594 156.002 117.375 156.564 117.901 157.357C116.704 158.166 115.214 157.961 113.856 157.891C113.133 157.738 112.283 157.685 111.767 157.089C109.871 155.08 108.085 152.972 106.173 150.98C105.777 150.592 105.357 150.22 105.065 149.746Z" fill="#C5C5C5"/>
<path fill-rule="evenodd" clip-rule="evenodd" d="M103.862 -21.8843C146.42 -21.8843 180.92 12.8954 180.92 55.798C180.92 98.7006 146.42 133.48 103.862 133.48C61.3039 133.48 26.8037 98.7006 26.8037 55.798C26.8037 12.8954 61.3039 -21.8843 103.862 -21.8843Z" fill="#C5C5C5"/>
<path fill-rule="evenodd" clip-rule="evenodd" d="M148.066 108.058C148.045 108.076 148.025 108.096 148.018 108.12C148.036 108.101 148.051 108.08 148.066 108.058ZM148.102 108.03C148.091 108.038 148.078 108.048 148.066 108.058C148.407 107.547 147.964 106.487 148.882 105.715C148.81 106.62 149.101 108.333 148.533 108.766L148.102 108.03Z" fill="#949494"/>
</svg>
