<svg width="16" height="16" viewBox="0 0 16 16" fill="none" xmlns="http://www.w3.org/2000/svg">
<path d="M15.5312 10.7949H14.4596C14.2319 9.23514 12.8855 8.03345 11.2635 8.03345C9.64159 8.03345 8.29522 9.23514 8.06747 10.7949H0.46875C0.209875 10.7949 0 11.0048 0 11.2636C0 11.5225 0.209875 11.7324 0.46875 11.7324H8.06747C8.29522 13.2922 9.64159 14.4939 11.2635 14.4939C12.8855 14.4939 14.2319 13.2922 14.4596 11.7324H15.5312C15.7901 11.7324 16 11.5225 16 11.2636C16 11.0048 15.7901 10.7949 15.5312 10.7949ZM11.2635 13.5564C9.99934 13.5564 8.97084 12.5279 8.97084 11.2636C8.97084 9.99945 9.99934 8.97095 11.2635 8.97095C12.5278 8.97095 13.5562 9.99945 13.5562 11.2636C13.5562 12.5279 12.5278 13.5564 11.2635 13.5564Z" fill="#565656"/>
<path d="M0.46875 5.20532H1.54037C1.76813 6.76507 3.1145 7.96675 4.73647 7.96675C6.35841 7.96675 7.70478 6.76507 7.93253 5.20532H15.5312C15.7901 5.20532 16 4.99544 16 4.73657C16 4.47769 15.7901 4.26782 15.5312 4.26782H7.93253C7.70478 2.70804 6.35841 1.50635 4.73647 1.50635C3.1145 1.50635 1.76813 2.70804 1.54037 4.26782H0.46875C0.209875 4.26782 0 4.47769 0 4.73657C0 4.99544 0.209875 5.20532 0.46875 5.20532ZM4.73647 2.44385C6.00066 2.44385 7.02916 3.47235 7.02916 4.73657C7.02916 6.00075 6.00066 7.02925 4.73647 7.02925C3.47225 7.02925 2.44375 6.00075 2.44375 4.73657C2.44375 3.47235 3.47225 2.44385 4.73647 2.44385Z" fill="#565656"/>
</svg>
