<svg width="16" height="16" viewBox="0 0 16 16" fill="none" xmlns="http://www.w3.org/2000/svg">
<g clip-path="url(#clip0_20_7109)">
<path d="M5.53052 3.96777V4.53044V5.49948C5.53052 6.86116 6.63832 7.96896 8 7.96896C9.36169 7.96896 10.4695 6.86116 10.4695 5.49948V4.53044V3.96777H5.53052Z" fill="#565656"/>
<path d="M12.0012 0.779297H3.9988C3.73984 0.779297 3.52991 0.989234 3.52991 1.24819C3.52991 1.50714 3.73984 1.71708 3.9988 1.71708H5.5305V3.02996H10.4695V1.71708H11.5323V2.24848C11.5323 2.50744 11.7422 2.71737 12.0012 2.71737C12.2601 2.71737 12.4701 2.50744 12.4701 2.24848V1.24819C12.4701 0.989234 12.2601 0.779297 12.0012 0.779297Z" fill="#565656"/>
<path d="M14.6401 12.0325C14.6921 11.8857 14.7207 11.728 14.7207 11.5636V5.93694C14.7207 5.1613 14.0897 4.53027 13.3141 4.53027H11.4072V5.49931C11.4072 6.54678 10.932 7.48524 10.1859 8.11074C11.2435 9.3171 11.7243 11.2085 11.8921 12.0325H14.6401Z" fill="#565656"/>
<path d="M4.10795 12.0325C4.27572 11.2085 4.75649 9.3171 5.81411 8.11074C5.06805 7.48521 4.59278 6.54678 4.59278 5.49931V4.53027H2.68596C1.91033 4.53027 1.2793 5.1613 1.2793 5.93694V11.5636C1.2793 11.728 1.3079 11.8857 1.35995 12.0325H4.10795Z" fill="#565656"/>
<path d="M11.5021 12.9702C11.5016 12.9702 11.501 12.9703 11.5005 12.9703C11.5 12.9703 11.4996 12.9702 11.4991 12.9702H0C0.0494522 14.2196 1.08079 15.2209 2.34207 15.2209H13.6579C14.9192 15.2209 15.9505 14.2196 16 12.9702H11.5021Z" fill="#565656"/>
<path d="M7.99996 10.1978L9.76808 9.09276C9.6437 8.91126 9.51457 8.75156 9.38075 8.61383C8.95844 8.80179 8.4912 8.90648 7.99996 8.90648C7.50863 8.90648 7.04137 8.80176 6.61902 8.61377C6.4852 8.7515 6.35607 8.91114 6.23169 9.09266L7.99996 10.1978Z" fill="#565656"/>
<path d="M8.46887 12.0326H10.9317C10.8278 11.5679 10.6411 10.864 10.3441 10.1692C10.3062 10.0805 10.2676 9.99456 10.2285 9.91113L8.46887 11.0109V12.0326Z" fill="#565656"/>
<path d="M7.5311 11.0109L5.77151 9.91113C5.73016 9.99925 5.68943 10.0901 5.64945 10.1842C5.3552 10.8764 5.17077 11.5723 5.06799 12.0326H7.5311V11.0109Z" fill="#565656"/>
</g>
<defs>
<clipPath id="clip0_20_7109">
<rect width="16" height="16" fill="white"/>
</clipPath>
</defs>
</svg>
