<svg width="16" height="16" viewBox="0 0 16 16" fill="none" xmlns="http://www.w3.org/2000/svg">
<path d="M8.81312 5.54505L5.6875 4.44189V6.56277C5.6875 6.82164 5.89737 7.03152 6.15625 7.03152H12.4062C12.6651 7.03152 12.875 6.82164 12.875 6.56277V4.44189L9.74928 5.54511C9.59862 5.5983 9.44112 5.62527 9.28125 5.62527C9.12138 5.62527 8.96387 5.5983 8.81312 5.54505Z" fill="#565656"/>
<path d="M3.81275 2.7858L9.12525 4.6608C9.17572 4.67862 9.2285 4.68752 9.28125 4.68752C9.334 4.68752 9.38678 4.67862 9.43725 4.6608L14.125 3.0063V4.84377C14.125 5.10265 14.3349 5.31252 14.5938 5.31252C14.8526 5.31252 15.0625 5.10265 15.0625 4.84377V2.34377C15.0625 2.14505 14.9372 1.9679 14.7498 1.90174L9.43725 0.0267422C9.33631 -0.00891406 9.22619 -0.00891406 9.12525 0.0267422L3.81275 1.90174C3.62534 1.9679 3.5 2.14505 3.5 2.34377C3.5 2.54249 3.62534 2.71965 3.81275 2.7858Z" fill="#565656"/>
<path d="M14.2734 9.82043L12.5004 12.139C12.1456 12.6029 11.5949 12.8751 11.0109 12.8751H7.71875C7.45988 12.8751 7.25 12.6652 7.25 12.4063C7.25 12.1474 7.45988 11.9376 7.71875 11.9376H10.5722C11.1854 11.9376 11.699 11.4356 11.6873 10.8225C11.6759 10.2282 11.1907 9.75006 10.5938 9.75006H7.3125C6.37041 8.84421 4.91659 8.73821 3.85306 9.49787L3.5 9.75006V15.0626H6.625H7.25H11.652C12.609 15.0626 13.5003 14.5759 14.0178 13.7709L15.8472 10.9253C15.9469 10.7701 16 10.5895 16 10.4049C16 9.48474 14.8323 9.08946 14.2734 9.82043Z" fill="#565656"/>
<path d="M2.09375 8.8125H0.46875C0.209875 8.8125 0 9.02237 0 9.28125V15.5312C0 15.7901 0.209875 16 0.46875 16H2.09375C2.35262 16 2.5625 15.7901 2.5625 15.5312V9.28125C2.5625 9.02237 2.35262 8.8125 2.09375 8.8125Z" fill="#565656"/>
</svg>
