<svg width="16" height="16" viewBox="0 0 16 16" fill="none" xmlns="http://www.w3.org/2000/svg">
<path d="M11.8537 9.74807C11.9333 9.74807 12.0001 9.69662 12.0001 9.62975V6.3708C12.0001 6.3065 11.9365 6.25248 11.8537 6.25248H5.09706V4.11757C5.09706 4.01211 4.94111 3.96067 4.84882 4.03526L0.0430872 7.91668C-0.0141996 7.96298 -0.0141996 8.03757 0.0430872 8.08387L4.84563 11.9653C4.93793 12.0399 5.09388 11.9859 5.09388 11.883V9.74807H11.8537Z" fill="#565656"/>
<path d="M14.6626 0H6.42578V3.04683H13C13.0806 3.04683 13.1482 3.13376 13.1482 3.23726V12.7627C13.1482 12.8662 13.0806 12.9532 13 12.9532H6.42578V16H14.6659C15.4006 16 16 15.2383 16 14.2862V1.71384C16 0.769987 15.4006 0 14.6626 0Z" fill="#565656"/>
</svg>
